<?xml version="1.0" encoding="utf-8"?>
<!-- Generator: Adobe Illustrator 26.5.0, SVG Export Plug-In . SVG Version: 6.00 Build 0)  -->
<svg version="1.1" id="Layer_1" xmlns="http://www.w3.org/2000/svg" xmlns:xlink="http://www.w3.org/1999/xlink" x="0px" y="0px"
	 viewBox="0 0 452.2 311.8" style="enable-background:new 0 0 452.2 311.8;" xml:space="preserve">
<style type="text/css">
	.st0{fill:#008080;}
	.st1{fill:#D3D3D3;}
	.st2{font-family:'ProximaNova-Regular';}
	.st3{font-size:29px;}
</style>
<g>
	<path class="st0" d="M43,73.2c3,0,5.4-2.1,5.4-4.7S46,63.8,43,63.8s-5.4,2.1-5.4,4.7S40,73.2,43,73.2z"/>
	<path class="st0" d="M53.1,75.9C52.8,75,52,74.2,50.9,74H35.2c-0.7,0.1-1.3,0.5-1.7,1.1C33,75.8,33,76.7,33,77.5l0,0v11.7l0,0
		c0.1,1,0.8,1.9,1.7,1.9l0,0l0,0l0,0l0,0c1,0,1.7-1,1.7-2.1v-7.5l0,0c0.1-0.2,0.2-0.3,0.4-0.3s0.5,0.2,0.5,0.5v26.1
		c0,1.1,1.1,1.9,2.4,1.9H40c1.3,0,2.4-0.9,2.4-1.9V93h1.5v14.9c0,1.1,1.1,1.9,2.4,1.9h0.3c1.3,0,2.4-0.9,2.4-1.9V81.8
		c0-0.3,0.2-0.5,0.4-0.5c0.2,0,0.4,0.1,0.4,0.3v7.7l0,0c0.1,1,0.8,1.9,1.7,1.9l0,0l0,0l0,0l0,0c0.9,0,1.7-1,1.7-2.1V76.8
		C53.2,76.5,53.2,76.2,53.1,75.9z"/>
</g>
<g>
	<path class="st0" d="M21.4,73.2c3,0,5.4-2.1,5.4-4.7s-2.4-4.7-5.4-4.7S16,65.9,16,68.5C16.1,71.1,18.5,73.2,21.4,73.2z"/>
	<path class="st0" d="M31.5,75.9c-0.3-0.9-1.1-1.7-2.2-1.9H13.7c-0.7,0.1-1.3,0.5-1.7,1.1c-0.5,0.7-0.5,1.6-0.5,2.4l0,0v11.7l0,0
		c0.1,1,0.8,1.9,1.7,1.9l0,0l0,0l0,0l0,0c1,0,1.7-1,1.7-2.1v-7.5l0,0c0.1-0.2,0.2-0.3,0.4-0.3s0.5,0.2,0.5,0.5v26.1
		c0,1.1,1.1,1.9,2.4,1.9h0.3c1.3,0,2.4-0.9,2.4-1.9V93h1.5v14.9c0,1.1,1.1,1.9,2.4,1.9h0.3c1.3,0,2.4-0.9,2.4-1.9V81.8
		c0-0.3,0.2-0.5,0.5-0.5c0.2,0,0.4,0.1,0.4,0.3v7.7l0,0c0.1,1,0.8,1.9,1.7,1.9l0,0l0,0l0,0l0,0c1,0,1.7-1,1.7-2.1V76.8
		C31.7,76.5,31.6,76.2,31.5,75.9z"/>
</g>
<g>
	<path class="st0" d="M85.7,73.2c3,0,5.4-2.1,5.4-4.7s-2.4-4.7-5.4-4.7s-5.4,2.1-5.4,4.7C80.3,71.1,82.7,73.2,85.7,73.2z"/>
	<path class="st0" d="M95.8,75.9c-0.3-0.9-1.1-1.7-2.2-1.9H78c-0.7,0.1-1.3,0.5-1.7,1.1c-0.5,0.7-0.6,1.6-0.6,2.4l0,0v11.7l0,0
		c0.1,1,0.8,1.9,1.7,1.9l0,0l0,0l0,0l0,0c0.9,0,1.7-1,1.7-2.1v-7.5l0,0c0.1-0.2,0.2-0.3,0.4-0.3c0.2,0,0.4,0.2,0.4,0.5v26.1
		c0,1.1,1.1,1.9,2.4,1.9h0.3c1.3,0,2.4-0.9,2.4-1.9V93h1.5v14.9c0,1.1,1.1,1.9,2.4,1.9h0.3c1.3,0,2.4-0.9,2.4-1.9V81.8
		c0-0.3,0.2-0.5,0.4-0.5c0.2,0,0.4,0.1,0.4,0.3v7.7l0,0c0.1,1,0.8,1.9,1.7,1.9l0,0l0,0l0,0l0,0c0.9,0,1.7-1,1.7-2.1V76.8
		C96,76.5,95.9,76.2,95.8,75.9z"/>
</g>
<g>
	<path class="st0" d="M64.2,73.2c3,0,5.4-2.1,5.4-4.7s-2.4-4.7-5.4-4.7s-5.4,2.1-5.4,4.7C58.8,71.1,61.2,73.2,64.2,73.2z"/>
	<path class="st0" d="M74.3,75.9C74,75,73.1,74.2,72.1,74H56.5c-0.7,0.1-1.3,0.5-1.7,1.1c-0.5,0.7-0.6,1.6-0.6,2.4l0,0v11.7l0,0
		c0.1,1,0.8,1.9,1.7,1.9l0,0l0,0l0,0l0,0c1,0,1.7-1,1.7-2.1v-7.5l0,0c0.1-0.2,0.2-0.3,0.4-0.3c0.2,0,0.5,0.2,0.5,0.5v26.1
		c0,1.1,1.1,1.9,2.4,1.9h0.3c1.3,0,2.4-0.9,2.4-1.9V93h1.5v14.9c0,1.1,1.1,1.9,2.4,1.9h0.3c1.3,0,2.4-0.9,2.4-1.9V81.8
		c0-0.3,0.2-0.5,0.5-0.5c0.2,0,0.4,0.1,0.4,0.3v7.7l0,0c0.1,1,0.8,1.9,1.7,1.9l0,0l0,0l0,0l0,0c1,0,1.7-1,1.7-2.1V76.8
		C74.5,76.5,74.4,76.2,74.3,75.9z"/>
</g>
<path class="st0" d="M128.4,73.5c3,0,5.4-2.1,5.4-4.7s-2.4-4.7-5.4-4.7s-5.4,2.1-5.4,4.7S125.4,73.5,128.4,73.5z"/>
<path class="st0" d="M138.4,76.2c-0.3-0.9-1.1-1.7-2.2-1.9h-15.6c-0.7,0.1-1.3,0.5-1.7,1.1c-0.5,0.7-0.6,1.6-0.6,2.4l0,0v11.7l0,0
	c0.1,1,0.8,1.9,1.7,1.9l0,0l0,0l0,0l0,0c1,0,1.7-1,1.7-2.1v-7.5l0,0c0.1-0.2,0.2-0.3,0.4-0.3s0.4,0.2,0.4,0.5v26.1
	c0,1.1,1.1,1.9,2.4,1.9h0.3c1.3,0,2.4-0.9,2.4-1.9V93.2h1.5v14.9c0,1.1,1.1,1.9,2.4,1.9h0.3c1.3,0,2.4-0.9,2.4-1.9V82
	c0-0.3,0.2-0.5,0.4-0.5s0.4,0.1,0.4,0.3v7.7l0,0c0.1,1,0.8,1.9,1.7,1.9l0,0l0,0l0,0l0,0c0.9,0,1.7-1,1.7-2.1V77
	C138.6,76.8,138.6,76.5,138.4,76.2z"/>
<path class="st0" d="M106.8,73.5c3,0,5.4-2.1,5.4-4.7s-2.4-4.7-5.4-4.7s-5.4,2.1-5.4,4.7S103.9,73.5,106.8,73.5z"/>
<path class="st0" d="M116.9,76.2c-0.3-0.9-1.1-1.7-2.2-1.9H99.1c-0.7,0.1-1.3,0.5-1.7,1.1c-0.5,0.7-0.5,1.6-0.5,2.4l0,0v11.7l0,0
	c0.1,1,0.8,1.9,1.7,1.9l0,0l0,0l0,0l0,0c1,0,1.7-1,1.7-2.1v-7.5l0,0c0.1-0.2,0.2-0.3,0.4-0.3c0.2,0,0.5,0.2,0.5,0.5v26.1
	c0,1.1,1.1,1.9,2.4,1.9h0.3c1.3,0,2.4-0.9,2.4-1.9V93.2h1.5v14.9c0,1.1,1.1,1.9,2.4,1.9h0.3c1.3,0,2.4-0.9,2.4-1.9V82
	c0-0.3,0.2-0.5,0.4-0.5s0.4,0.1,0.4,0.3v7.7l0,0c0.1,1,0.8,1.9,1.7,1.9l0,0l0,0l0,0l0,0c0.9,0,1.7-1,1.7-2.1V77
	C117.1,76.8,117,76.5,116.9,76.2z"/>
<path class="st1" d="M171.1,73.5c3,0,5.4-2.1,5.4-4.7s-2.4-4.7-5.4-4.7s-5.4,2.1-5.4,4.7C165.7,71.4,168.1,73.5,171.1,73.5z"/>
<path class="st1" d="M181.2,76.2c-0.3-0.9-1.1-1.7-2.2-1.9h-15.6c-0.7,0.1-1.3,0.5-1.7,1.1c-0.5,0.7-0.6,1.6-0.6,2.4l0,0v11.7l0,0
	c0.1,1,0.8,1.9,1.7,1.9l0,0l0,0l0,0l0,0c0.9,0,1.7-1,1.7-2.1v-7.5l0,0c0.1-0.2,0.2-0.3,0.4-0.3s0.4,0.2,0.4,0.5v26.1
	c0,1.1,1.1,1.9,2.4,1.9h0.3c1.3,0,2.4-0.9,2.4-1.9V93.2h1.5v14.9c0,1.1,1.1,1.9,2.4,1.9h0.3c1.3,0,2.4-0.9,2.4-1.9V82
	c0-0.3,0.2-0.5,0.4-0.5s0.4,0.1,0.4,0.3v7.7l0,0c0.1,1,0.8,1.9,1.7,1.9l0,0l0,0l0,0l0,0c0.9,0,1.7-1,1.7-2.1V77
	C181.4,76.8,181.3,76.5,181.2,76.2z"/>
<path class="st0" d="M149.6,73.5c3,0,5.4-2.1,5.4-4.7s-2.4-4.7-5.4-4.7s-5.4,2.1-5.4,4.7C144.2,71.4,146.6,73.5,149.6,73.5z"/>
<path class="st0" d="M159.7,76.2c-0.3-0.9-1.1-1.7-2.2-1.9h-15.6c-0.7,0.1-1.3,0.5-1.7,1.1c-0.5,0.7-0.6,1.6-0.6,2.4l0,0v11.7l0,0
	c0.1,1,0.8,1.9,1.7,1.9l0,0l0,0l0,0l0,0c0.9,0,1.7-1,1.7-2.1v-7.5l0,0c0.1-0.2,0.2-0.3,0.4-0.3s0.4,0.2,0.4,0.5v26.1
	c0,1.1,1.1,1.9,2.4,1.9h0.3c1.3,0,2.4-0.9,2.4-1.9V93.2h1.5v14.9c0,1.1,1.1,1.9,2.4,1.9h0.3c1.3,0,2.4-0.9,2.4-1.9V82
	c0-0.3,0.2-0.5,0.4-0.5s0.4,0.1,0.4,0.3v7.7l0,0c0.1,1,0.8,1.9,1.7,1.9l0,0l0,0l0,0l0,0c0.9,0,1.7-1,1.7-2.1V77
	C159.8,76.8,159.8,76.5,159.7,76.2z"/>
<path class="st1" d="M213.7,73.6c3,0,5.4-2.1,5.4-4.7s-2.4-4.7-5.4-4.7s-5.4,2.1-5.4,4.7S210.7,73.6,213.7,73.6z"/>
<path class="st1" d="M223.8,76.3c-0.3-0.9-1.1-1.7-2.2-1.9H206c-0.7,0.1-1.3,0.5-1.7,1.1c-0.5,0.7-0.6,1.6-0.6,2.4l0,0v11.7l0,0
	c0.1,1,0.8,1.9,1.7,1.9l0,0l0,0l0,0l0,0c0.9,0,1.7-1,1.7-2.1v-7.5l0,0c0.1-0.2,0.2-0.3,0.4-0.3s0.4,0.2,0.4,0.5v26.1
	c0,1.1,1.1,1.9,2.4,1.9h0.3c1.3,0,2.4-0.9,2.4-1.9V93.3h1.5v14.9c0,1.1,1.1,1.9,2.4,1.9h0.3c1.3,0,2.4-0.9,2.4-1.9V82.1
	c0-0.3,0.2-0.5,0.4-0.5s0.4,0.1,0.4,0.3v7.7l0,0c0.1,1,0.8,1.9,1.7,1.9l0,0l0,0l0,0l0,0c0.9,0,1.7-1,1.7-2.1V77.1
	C223.9,76.8,223.9,76.5,223.8,76.3z"/>
<path class="st1" d="M192.2,73.6c3,0,5.4-2.1,5.4-4.7s-2.4-4.7-5.4-4.7s-5.4,2.1-5.4,4.7S189.2,73.6,192.2,73.6z"/>
<path class="st1" d="M182.2,89.7c0.1,1,0.8,1.9,1.7,1.9l0,0l0,0l0,0l0,0c0.9,0,1.7-1,1.7-2.1V82l0,0c0.1-0.2,0.2-0.3,0.4-0.3
	s0.5,0.2,0.5,0.5v26.1c0,1.1,1.1,1.9,2.4,1.9h0.3c1.3,0,2.4-0.9,2.4-1.9V93.4h1.5v14.9c0,1.1,1.1,1.9,2.4,1.9h0.3
	c1.3,0,2.4-0.9,2.4-1.9V82.2c0-0.3,0.2-0.5,0.5-0.5c0.2,0,0.4,0.1,0.4,0.3v7.7l0,0c0.1,1,0.8,1.9,1.7,1.9l0,0l0,0l0,0l0,0
	c1,0,1.7-1,1.7-2.1V77.2c0-0.3-0.1-0.6-0.2-0.9c-0.3-0.9-1.1-1.7-2.2-1.9h-15.6c-0.7,0.1-1.3,0.5-1.7,1.1"/>
<g>
	<path class="st1" d="M43,120c3,0,5.4-2.1,5.4-4.7s-2.4-4.7-5.4-4.7s-5.4,2.1-5.4,4.7S40,120,43,120z"/>
	<path class="st1" d="M53.1,122.7c-0.3-0.9-1.1-1.7-2.2-1.9H35.2c-0.7,0.1-1.3,0.5-1.7,1.1c-0.5,0.7-0.5,1.6-0.5,2.4l0,0V136l0,0
		c0.1,1,0.8,1.9,1.7,1.9l0,0l0,0l0,0l0,0c1,0,1.7-1,1.7-2.1v-7.5l0,0c0.1-0.2,0.2-0.3,0.4-0.3s0.5,0.2,0.5,0.5v26.1
		c0,1.1,1.1,1.9,2.4,1.9H40c1.3,0,2.4-0.9,2.4-1.9v-14.9h1.5v14.9c0,1.1,1.1,1.9,2.4,1.9h0.3c1.3,0,2.4-0.9,2.4-1.9v-26.1
		c0-0.3,0.2-0.5,0.4-0.5c0.2,0,0.4,0.1,0.4,0.3v7.7l0,0c0.1,1,0.8,1.9,1.7,1.9l0,0l0,0l0,0l0,0c0.9,0,1.7-1,1.7-2.1v-12.3
		C53.2,123.3,53.2,123,53.1,122.7z"/>
</g>
<g>
	<path class="st1" d="M21.4,120c3,0,5.4-2.1,5.4-4.7s-2.4-4.7-5.4-4.7s-5.4,2.1-5.4,4.7C16.1,117.9,18.5,120,21.4,120z"/>
	<path class="st1" d="M31.5,122.7c-0.3-0.9-1.1-1.7-2.2-1.9H13.7c-0.7,0.1-1.3,0.5-1.7,1.1c-0.5,0.7-0.5,1.6-0.5,2.4l0,0V136l0,0
		c0.1,1,0.8,1.9,1.7,1.9l0,0l0,0l0,0l0,0c1,0,1.7-1,1.7-2.1v-7.5l0,0c0.1-0.2,0.2-0.3,0.4-0.3s0.5,0.2,0.5,0.5v26.1
		c0,1.1,1.1,1.9,2.4,1.9h0.3c1.3,0,2.4-0.9,2.4-1.9v-14.9h1.5v14.9c0,1.1,1.1,1.9,2.4,1.9h0.3c1.3,0,2.4-0.9,2.4-1.9v-26.1
		c0-0.3,0.2-0.5,0.5-0.5c0.2,0,0.4,0.1,0.4,0.3v7.7l0,0c0.1,1,0.8,1.9,1.7,1.9l0,0l0,0l0,0l0,0c1,0,1.7-1,1.7-2.1v-12.3
		C31.7,123.3,31.6,123,31.5,122.7z"/>
</g>
<g>
	<path class="st1" d="M85.7,120c3,0,5.4-2.1,5.4-4.7s-2.4-4.7-5.4-4.7s-5.4,2.1-5.4,4.7C80.3,117.9,82.7,120,85.7,120z"/>
	<path class="st1" d="M95.8,122.7c-0.3-0.9-1.1-1.7-2.2-1.9H78c-0.7,0.1-1.3,0.5-1.7,1.1c-0.5,0.7-0.6,1.6-0.6,2.4l0,0V136l0,0
		c0.1,1,0.8,1.9,1.7,1.9l0,0l0,0l0,0l0,0c0.9,0,1.7-1,1.7-2.1v-7.5l0,0c0.1-0.2,0.2-0.3,0.4-0.3c0.2,0,0.4,0.2,0.4,0.5v26.1
		c0,1.1,1.1,1.9,2.4,1.9h0.3c1.3,0,2.4-0.9,2.4-1.9v-14.9h1.5v14.9c0,1.1,1.1,1.9,2.4,1.9h0.3c1.3,0,2.4-0.9,2.4-1.9v-26.1
		c0-0.3,0.2-0.5,0.4-0.5c0.2,0,0.4,0.1,0.4,0.3v7.7l0,0c0.1,1,0.8,1.9,1.7,1.9l0,0l0,0l0,0l0,0c0.9,0,1.7-1,1.7-2.1v-12.3
		C96,123.3,95.9,123,95.8,122.7z"/>
</g>
<g>
	<path class="st1" d="M64.2,120c3,0,5.4-2.1,5.4-4.7s-2.4-4.7-5.4-4.7s-5.4,2.1-5.4,4.7C58.8,117.9,61.2,120,64.2,120z"/>
	<path class="st1" d="M74.3,122.7c-0.3-0.9-1.1-1.7-2.2-1.9H56.5c-0.7,0.1-1.3,0.5-1.7,1.1c-0.5,0.7-0.6,1.6-0.6,2.4l0,0V136l0,0
		c0.1,1,0.8,1.9,1.7,1.9l0,0l0,0l0,0l0,0c1,0,1.7-1,1.7-2.1v-7.5l0,0c0.1-0.2,0.2-0.3,0.4-0.3c0.2,0,0.5,0.2,0.5,0.5v26.1
		c0,1.1,1.1,1.9,2.4,1.9h0.3c1.3,0,2.4-0.9,2.4-1.9v-14.9h1.5v14.9c0,1.1,1.1,1.9,2.4,1.9h0.3c1.3,0,2.4-0.9,2.4-1.9v-26.1
		c0-0.3,0.2-0.5,0.5-0.5c0.2,0,0.4,0.1,0.4,0.3v7.7l0,0c0.1,1,0.8,1.9,1.7,1.9l0,0l0,0l0,0l0,0c1,0,1.7-1,1.7-2.1v-12.3
		C74.5,123.3,74.4,123,74.3,122.7z"/>
</g>
<path class="st1" d="M128.4,120.3c3,0,5.4-2.1,5.4-4.7s-2.4-4.7-5.4-4.7s-5.4,2.1-5.4,4.7S125.4,120.3,128.4,120.3z"/>
<path class="st1" d="M138.4,123c-0.3-0.9-1.1-1.7-2.2-1.9h-15.6c-0.7,0.1-1.3,0.5-1.7,1.1c-0.5,0.7-0.6,1.6-0.6,2.4l0,0v11.7l0,0
	c0.1,1,0.8,1.9,1.7,1.9l0,0l0,0l0,0l0,0c1,0,1.7-1,1.7-2.1v-7.5l0,0c0.1-0.2,0.2-0.3,0.4-0.3s0.4,0.2,0.4,0.5V155
	c0,1.1,1.1,1.9,2.4,1.9h0.3c1.3,0,2.4-0.9,2.4-1.9v-14.9h1.5V155c0,1.1,1.1,1.9,2.4,1.9h0.3c1.3,0,2.4-0.9,2.4-1.9v-26.1
	c0-0.3,0.2-0.5,0.4-0.5s0.4,0.1,0.4,0.3v7.7l0,0c0.1,1,0.8,1.9,1.7,1.9l0,0l0,0l0,0l0,0c0.9,0,1.7-1,1.7-2.1v-12.3
	C138.6,123.6,138.6,123.3,138.4,123z"/>
<path class="st1" d="M106.8,120.3c3,0,5.4-2.1,5.4-4.7s-2.4-4.7-5.4-4.7s-5.4,2.1-5.4,4.7S103.9,120.3,106.8,120.3z"/>
<path class="st1" d="M116.9,123c-0.3-0.9-1.1-1.7-2.2-1.9H99.1c-0.7,0.1-1.3,0.5-1.7,1.1c-0.5,0.7-0.5,1.6-0.5,2.4l0,0v11.7l0,0
	c0.1,1,0.8,1.9,1.7,1.9l0,0l0,0l0,0l0,0c1,0,1.7-1,1.7-2.1v-7.5l0,0c0.1-0.2,0.2-0.3,0.4-0.3c0.2,0,0.5,0.2,0.5,0.5V155
	c0,1.1,1.1,1.9,2.4,1.9h0.3c1.3,0,2.4-0.9,2.4-1.9v-14.9h1.5V155c0,1.1,1.1,1.9,2.4,1.9h0.3c1.3,0,2.4-0.9,2.4-1.9v-26.1
	c0-0.3,0.2-0.5,0.4-0.5s0.4,0.1,0.4,0.3v7.7l0,0c0.1,1,0.8,1.9,1.7,1.9l0,0l0,0l0,0l0,0c0.9,0,1.7-1,1.7-2.1v-12.3
	C117.1,123.6,117,123.3,116.9,123z"/>
<path class="st1" d="M171.1,120.3c3,0,5.4-2.1,5.4-4.7s-2.4-4.7-5.4-4.7s-5.4,2.1-5.4,4.7C165.7,118.2,168.1,120.3,171.1,120.3z"/>
<path class="st1" d="M181.2,123c-0.3-0.9-1.1-1.7-2.2-1.9h-15.6c-0.7,0.1-1.3,0.5-1.7,1.1c-0.5,0.7-0.6,1.6-0.6,2.4l0,0v11.7l0,0
	c0.1,1,0.8,1.9,1.7,1.9l0,0l0,0l0,0l0,0c0.9,0,1.7-1,1.7-2.1v-7.5l0,0c0.1-0.2,0.2-0.3,0.4-0.3s0.4,0.2,0.4,0.5V155
	c0,1.1,1.1,1.9,2.4,1.9h0.3c1.3,0,2.4-0.9,2.4-1.9v-14.9h1.5V155c0,1.1,1.1,1.9,2.4,1.9h0.3c1.3,0,2.4-0.9,2.4-1.9v-26.1
	c0-0.3,0.2-0.5,0.4-0.5s0.4,0.1,0.4,0.3v7.7l0,0c0.1,1,0.8,1.9,1.7,1.9l0,0l0,0l0,0l0,0c0.9,0,1.7-1,1.7-2.1v-12.3
	C181.4,123.6,181.3,123.3,181.2,123z"/>
<path class="st1" d="M149.6,120.3c3,0,5.4-2.1,5.4-4.7s-2.4-4.7-5.4-4.7s-5.4,2.1-5.4,4.7C144.2,118.2,146.6,120.3,149.6,120.3z"/>
<path class="st1" d="M159.7,123c-0.3-0.9-1.1-1.7-2.2-1.9h-15.6c-0.7,0.1-1.3,0.5-1.7,1.1c-0.5,0.7-0.6,1.6-0.6,2.4l0,0v11.7l0,0
	c0.1,1,0.8,1.9,1.7,1.9l0,0l0,0l0,0l0,0c0.9,0,1.7-1,1.7-2.1v-7.5l0,0c0.1-0.2,0.2-0.3,0.4-0.3s0.4,0.2,0.4,0.5V155
	c0,1.1,1.1,1.9,2.4,1.9h0.3c1.3,0,2.4-0.9,2.4-1.9v-14.9h1.5V155c0,1.1,1.1,1.9,2.4,1.9h0.3c1.3,0,2.4-0.9,2.4-1.9v-26.1
	c0-0.3,0.2-0.5,0.4-0.5s0.4,0.1,0.4,0.3v7.7l0,0c0.1,1,0.8,1.9,1.7,1.9l0,0l0,0l0,0l0,0c0.9,0,1.7-1,1.7-2.1v-12.3
	C159.8,123.6,159.8,123.3,159.7,123z"/>
<path class="st1" d="M213.7,120.4c3,0,5.4-2.1,5.4-4.7s-2.4-4.7-5.4-4.7s-5.4,2.1-5.4,4.7C208.3,118.3,210.7,120.4,213.7,120.4z"/>
<path class="st1" d="M223.8,123.1c-0.3-0.9-1.1-1.7-2.2-1.9H206c-0.7,0.1-1.3,0.5-1.7,1.1c-0.5,0.7-0.6,1.6-0.6,2.4l0,0v11.7l0,0
	c0.1,1,0.8,1.9,1.7,1.9l0,0l0,0l0,0l0,0c0.9,0,1.7-1,1.7-2.1v-7.5l0,0c0.1-0.2,0.2-0.3,0.4-0.3s0.4,0.2,0.4,0.5V155
	c0,1.1,1.1,1.9,2.4,1.9h0.3c1.3,0,2.4-0.9,2.4-1.9v-14.9h1.5V155c0,1.1,1.1,1.9,2.4,1.9h0.3c1.3,0,2.4-0.9,2.4-1.9v-26.1
	c0-0.3,0.2-0.5,0.4-0.5s0.4,0.1,0.4,0.3v7.7l0,0c0.1,1,0.8,1.9,1.7,1.9l0,0l0,0l0,0l0,0c0.9,0,1.7-1,1.7-2.1v-12.3
	C223.9,123.6,223.9,123.3,223.8,123.1z"/>
<path class="st1" d="M192.2,120.4c3,0,5.4-2.1,5.4-4.7s-2.4-4.7-5.4-4.7s-5.4,2.1-5.4,4.7C186.8,118.3,189.2,120.4,192.2,120.4z"/>
<path class="st1" d="M182.2,136.5c0.1,1,0.8,1.9,1.7,1.9l0,0l0,0l0,0l0,0c0.9,0,1.7-1,1.7-2.1v-7.5l0,0c0.1-0.2,0.2-0.3,0.4-0.3
	s0.5,0.2,0.5,0.5v26c0,1.1,1.1,1.9,2.4,1.9h0.3c1.3,0,2.4-0.9,2.4-1.9v-14.9h1.5V155c0,1.1,1.1,1.9,2.4,1.9h0.3
	c1.3,0,2.4-0.9,2.4-1.9v-26.1c0-0.3,0.2-0.5,0.5-0.5c0.2,0,0.4,0.1,0.4,0.3v7.7l0,0c0.1,1,0.8,1.9,1.7,1.9l0,0l0,0l0,0l0,0
	c1,0,1.7-1,1.7-2.1v-12.3c0-0.3-0.1-0.6-0.2-0.9c-0.3-0.9-1.1-1.7-2.2-1.9h-15.6c-0.7,0.1-1.3,0.5-1.7,1.1"/>
<g>
	<path class="st1" d="M44.5,166.9c3,0,5.4-2.1,5.4-4.7c0-2.6-2.4-4.7-5.4-4.7s-5.4,2.1-5.4,4.7C39.1,164.8,41.5,166.9,44.5,166.9z"
		/>
	<path class="st1" d="M54.5,169.6c-0.3-0.9-1.1-1.7-2.2-1.9H36.7c-0.7,0.1-1.3,0.5-1.7,1.1c-0.5,0.7-0.6,1.6-0.6,2.4l0,0V183l0,0
		c0.1,1,0.8,1.9,1.7,1.9l0,0l0,0l0,0l0,0c1,0,1.7-1,1.7-2.1v-7.5l0,0c0.1-0.2,0.2-0.3,0.4-0.3s0.5,0.2,0.5,0.5v26.1
		c0,1.1,1.1,1.9,2.4,1.9h0.3c1.3,0,2.4-0.9,2.4-1.9v-14.9h1.5v14.9c0,1.1,1.1,1.9,2.4,1.9H48c1.3,0,2.4-0.9,2.4-1.9v-26.1
		c0-0.3,0.2-0.5,0.5-0.5c0.2,0,0.4,0.1,0.4,0.3v7.7l0,0c0.1,1,0.8,1.9,1.7,1.9l0,0l0,0l0,0l0,0c1,0,1.7-1,1.7-2.1v-12.3
		C54.7,170.2,54.7,169.9,54.5,169.6z"/>
</g>
<g>
	<path class="st1" d="M22.9,166.9c3,0,5.4-2.1,5.4-4.7c0-2.6-2.4-4.7-5.4-4.7s-5.4,2.1-5.4,4.7C17.5,164.8,20,166.9,22.9,166.9z"/>
	<path class="st1" d="M33,169.6c-0.3-0.9-1.1-1.7-2.2-1.9H15.2c-0.7,0.1-1.3,0.5-1.7,1.1c-0.5,0.7-0.5,1.6-0.5,2.4l0,0V183l0,0
		c0.1,1,0.8,1.9,1.7,1.9l0,0l0,0l0,0l0,0c1,0,1.7-1,1.7-2.1v-7.5l0,0c0.1-0.2,0.2-0.3,0.4-0.3s0.5,0.2,0.5,0.5v26.1
		c0,1.1,1.1,1.9,2.4,1.9H20c1.3,0,2.4-0.9,2.4-1.9v-14.9h1.5v14.9c0,1.1,1.1,1.9,2.4,1.9h0.3c1.3,0,2.4-0.9,2.4-1.9v-26.1
		c0-0.3,0.2-0.5,0.5-0.5c0.2,0,0.4,0.1,0.4,0.3v7.7l0,0c0.1,1,0.8,1.9,1.7,1.9l0,0l0,0l0,0l0,0c1,0,1.7-1,1.7-2.1v-12.3
		C33.2,170.2,33.1,169.9,33,169.6z"/>
</g>
<g>
	<path class="st1" d="M87.2,166.9c3,0,5.4-2.1,5.4-4.7c0-2.6-2.4-4.7-5.4-4.7s-5.4,2.1-5.4,4.7C81.8,164.8,84.2,166.9,87.2,166.9z"
		/>
	<path class="st1" d="M97.3,169.6c-0.3-0.9-1.1-1.7-2.2-1.9H79.5c-0.7,0.1-1.3,0.5-1.7,1.1c-0.5,0.7-0.5,1.6-0.5,2.4l0,0V183l0,0
		c0.1,1,0.8,1.9,1.7,1.9l0,0l0,0l0,0l0,0c1,0,1.7-1,1.7-2.1v-7.5l0,0c0.1-0.2,0.2-0.3,0.4-0.3c0.2,0,0.5,0.2,0.5,0.5v26.1
		c0,1.1,1.1,1.9,2.4,1.9h0.3c1.3,0,2.4-0.9,2.4-1.9v-14.9h1.5v14.9c0,1.1,1.1,1.9,2.4,1.9h0.3c1.3,0,2.4-0.9,2.4-1.9v-26.1
		c0-0.3,0.2-0.5,0.4-0.5c0.2,0,0.4,0.1,0.4,0.3v7.7l0,0c0.1,1,0.8,1.9,1.7,1.9l0,0l0,0l0,0l0,0c0.9,0,1.7-1,1.7-2.1v-12.3
		C97.5,170.2,97.4,169.9,97.3,169.6z"/>
</g>
<g>
	<path class="st1" d="M65.7,166.9c3,0,5.4-2.1,5.4-4.7c0-2.6-2.4-4.7-5.4-4.7s-5.4,2.1-5.4,4.7C60.3,164.8,62.7,166.9,65.7,166.9z"
		/>
	<path class="st1" d="M75.8,169.6c-0.3-0.9-1.1-1.7-2.2-1.9H58c-0.7,0.1-1.3,0.5-1.7,1.1c-0.5,0.7-0.5,1.6-0.5,2.4l0,0V183l0,0
		c0.1,1,0.8,1.9,1.7,1.9l0,0l0,0l0,0l0,0c0.9,0,1.7-1,1.7-2.1v-7.5l0,0c0.1-0.2,0.2-0.3,0.4-0.3c0.2,0,0.4,0.2,0.4,0.5v26.1
		c0,1.1,1.1,1.9,2.4,1.9h0.3c1.3,0,2.4-0.9,2.4-1.9v-14.9h1.5v14.9c0,1.1,1.1,1.9,2.4,1.9h0.3c1.3,0,2.4-0.9,2.4-1.9v-26.1
		c0-0.3,0.2-0.5,0.4-0.5c0.2,0,0.4,0.1,0.4,0.3v7.7l0,0c0.1,1,0.8,1.9,1.7,1.9l0,0l0,0l0,0l0,0c0.9,0,1.7-1,1.7-2.1v-12.3
		C75.9,170.2,75.9,169.9,75.8,169.6z"/>
</g>
<path class="st1" d="M129.8,167.2c3,0,5.4-2.1,5.4-4.7c0-2.6-2.4-4.7-5.4-4.7s-5.4,2.1-5.4,4.7C124.5,165.1,126.9,167.2,129.8,167.2
	z"/>
<path class="st1" d="M139.9,169.9c-0.3-0.9-1.1-1.7-2.2-1.9h-15.6c-0.7,0.1-1.3,0.5-1.7,1.1c-0.5,0.7-0.6,1.6-0.6,2.4l0,0v11.7l0,0
	c0.1,1,0.8,1.9,1.7,1.9l0,0l0,0l0,0l0,0c0.9,0,1.7-1,1.7-2.1v-7.5l0,0c0.1-0.2,0.2-0.3,0.4-0.3s0.4,0.2,0.4,0.5v26.1
	c0,1.1,1.1,1.9,2.4,1.9h0.3c1.3,0,2.4-0.9,2.4-1.9V187h1.5v14.9c0,1.1,1.1,1.9,2.4,1.9h0.3c1.3,0,2.4-0.9,2.4-1.9v-26.1
	c0-0.3,0.2-0.5,0.4-0.5s0.4,0.1,0.4,0.3v7.7l0,0c0.1,1,0.8,1.9,1.7,1.9l0,0l0,0l0,0l0,0c0.9,0,1.7-1,1.7-2.1v-12.3
	C140.1,170.5,140,170.2,139.9,169.9z"/>
<path class="st1" d="M108.3,167.2c3,0,5.4-2.1,5.4-4.7c0-2.6-2.4-4.7-5.4-4.7s-5.4,2.1-5.4,4.7C102.9,165.1,105.3,167.2,108.3,167.2
	z"/>
<path class="st1" d="M118.4,169.9c-0.3-0.9-1.1-1.7-2.2-1.9h-15.6c-0.7,0.1-1.3,0.5-1.7,1.1c-0.5,0.7-0.6,1.6-0.6,2.4l0,0v11.7l0,0
	c0.1,1,0.8,1.9,1.7,1.9l0,0l0,0l0,0l0,0c0.9,0,1.7-1,1.7-2.1v-7.5l0,0c0.1-0.2,0.2-0.3,0.4-0.3c0.2,0,0.4,0.2,0.4,0.5v26.1
	c0,1.1,1.1,1.9,2.4,1.9h0.3c1.3,0,2.4-0.9,2.4-1.9V187h1.5v14.9c0,1.1,1.1,1.9,2.4,1.9h0.3c1.3,0,2.4-0.9,2.4-1.9v-26.1
	c0-0.3,0.2-0.5,0.5-0.5c0.2,0,0.4,0.1,0.4,0.3v7.7l0,0c0.1,1,0.8,1.9,1.7,1.9l0,0l0,0l0,0l0,0c1,0,1.7-1,1.7-2.1v-12.3
	C118.6,170.5,118.5,170.2,118.4,169.9z"/>
<path class="st1" d="M172.6,167.2c3,0,5.4-2.1,5.4-4.7c0-2.6-2.4-4.7-5.4-4.7s-5.4,2.1-5.4,4.7C167.2,165.1,169.6,167.2,172.6,167.2
	z"/>
<path class="st1" d="M182.7,169.9c-0.3-0.9-1.1-1.7-2.2-1.9h-15.6c-0.7,0.1-1.3,0.5-1.7,1.1c-0.5,0.7-0.6,1.6-0.6,2.4l0,0v11.7l0,0
	c0.1,1,0.8,1.9,1.7,1.9l0,0l0,0l0,0l0,0c1,0,1.7-1,1.7-2.1v-7.5l0,0c0.1-0.2,0.2-0.3,0.4-0.3s0.4,0.2,0.4,0.5v26.1
	c0,1.1,1.1,1.9,2.4,1.9h0.3c1.3,0,2.4-0.9,2.4-1.9V187h1.5v14.9c0,1.1,1.1,1.9,2.4,1.9h0.3c1.3,0,2.4-0.9,2.4-1.9v-26.1
	c0-0.3,0.2-0.5,0.4-0.5s0.4,0.1,0.4,0.3v7.7l0,0c0.1,1,0.8,1.9,1.7,1.9l0,0l0,0l0,0l0,0c0.9,0,1.7-1,1.7-2.1v-12.3
	C182.8,170.5,182.8,170.2,182.7,169.9z"/>
<path class="st1" d="M151.1,167.2c3,0,5.4-2.1,5.4-4.7c0-2.6-2.4-4.7-5.4-4.7s-5.4,2.1-5.4,4.7C145.7,165.1,148.1,167.2,151.1,167.2
	z"/>
<path class="st1" d="M161.2,169.9c-0.3-0.9-1.1-1.7-2.2-1.9h-15.6c-0.7,0.1-1.3,0.5-1.7,1.1c-0.5,0.7-0.5,1.6-0.5,2.4l0,0v11.7l0,0
	c0.1,1,0.8,1.9,1.7,1.9l0,0l0,0l0,0l0,0c0.9,0,1.7-1,1.7-2.1v-7.5l0,0c0.1-0.2,0.2-0.3,0.4-0.3s0.4,0.2,0.4,0.5v26.1
	c0,1.1,1.1,1.9,2.4,1.9h0.3c1.3,0,2.4-0.9,2.4-1.9V187h1.5v14.9c0,1.1,1.1,1.9,2.4,1.9h0.3c1.3,0,2.4-0.9,2.4-1.9v-26.1
	c0-0.3,0.2-0.5,0.4-0.5s0.4,0.1,0.4,0.3v7.7l0,0c0.1,1,0.8,1.9,1.7,1.9l0,0l0,0l0,0l0,0c0.9,0,1.7-1,1.7-2.1v-12.3
	C161.3,170.5,161.3,170.2,161.2,169.9z"/>
<path class="st1" d="M215.2,167.3c3,0,5.4-2.1,5.4-4.7s-2.4-4.7-5.4-4.7s-5.4,2.1-5.4,4.7S212.2,167.3,215.2,167.3z"/>
<path class="st1" d="M225.3,170c-0.3-0.9-1.1-1.7-2.2-1.9h-15.6c-0.7,0.1-1.3,0.5-1.7,1.1c-0.5,0.7-0.5,1.6-0.5,2.4l0,0v11.7l0,0
	c0.1,1,0.8,1.9,1.7,1.9l0,0l0,0l0,0l0,0c0.9,0,1.7-1,1.7-2.1v-7.5l0,0c0.1-0.2,0.2-0.3,0.4-0.3s0.5,0.2,0.5,0.5v26.1
	c0,1.1,1.1,1.9,2.4,1.9h0.3c1.3,0,2.4-0.9,2.4-1.9V187h1.5v15c0,1.1,1.1,1.9,2.4,1.9h0.3c1.3,0,2.4-0.9,2.4-1.9v-26.1
	c0-0.3,0.2-0.5,0.4-0.5s0.4,0.1,0.4,0.3v7.7l0,0c0.1,1,0.8,1.9,1.7,1.9l0,0l0,0l0,0l0,0c0.9,0,1.7-1,1.7-2.1v-12.3
	C225.4,170.6,225.4,170.2,225.3,170z"/>
<path class="st1" d="M193.6,167.3c3,0,5.4-2.1,5.4-4.7s-2.4-4.7-5.4-4.7s-5.4,2.1-5.4,4.7C188.3,165.2,190.7,167.3,193.6,167.3z"/>
<path class="st1" d="M183.7,183.4c0.1,1,0.8,1.9,1.7,1.9l0,0l0,0l0,0l0,0c0.9,0,1.7-1,1.7-2.1v-7.5l0,0c0.1-0.2,0.2-0.3,0.4-0.3
	s0.4,0.2,0.4,0.5V202c0,1.1,1.1,1.9,2.4,1.9h0.3c1.3,0,2.4-0.9,2.4-1.9v-15h1.5v15c0,1.1,1.1,1.9,2.4,1.9h0.3c1.3,0,2.4-0.9,2.4-1.9
	v-26.1c0-0.3,0.2-0.5,0.4-0.5s0.4,0.1,0.4,0.3v7.7l0,0c0.1,1,0.8,1.9,1.7,1.9l0,0l0,0l0,0l0,0c0.9,0,1.7-1,1.7-2.1v-12.3
	c0-0.3-0.1-0.6-0.2-0.9c-0.3-0.9-1.1-1.7-2.2-1.9h-15.6c-0.7,0.1-1.3,0.5-1.7,1.1"/>
<g>
	<path class="st1" d="M44.5,213.7c3,0,5.4-2.1,5.4-4.7s-2.4-4.7-5.4-4.7s-5.4,2.1-5.4,4.7C39.1,211.6,41.5,213.7,44.5,213.7z"/>
	<path class="st1" d="M54.5,216.4c-0.3-0.9-1.1-1.7-2.2-1.9H36.7c-0.7,0.1-1.3,0.5-1.7,1.1c-0.5,0.7-0.6,1.6-0.6,2.4l0,0v11.7l0,0
		c0.1,1,0.8,1.9,1.7,1.9l0,0l0,0l0,0l0,0c1,0,1.7-1,1.7-2.1V222l0,0c0.1-0.2,0.2-0.3,0.4-0.3s0.5,0.2,0.5,0.5v26.1
		c0,1.1,1.1,1.9,2.4,1.9h0.3c1.3,0,2.4-0.9,2.4-1.9v-14.9h1.5v14.9c0,1.1,1.1,1.9,2.4,1.9H48c1.3,0,2.4-0.9,2.4-1.9v-26.1
		c0-0.3,0.2-0.5,0.5-0.5c0.2,0,0.4,0.1,0.4,0.3v7.7l0,0c0.1,1,0.8,1.9,1.7,1.9l0,0l0,0l0,0l0,0c1,0,1.7-1,1.7-2.1v-12.3
		C54.7,217,54.7,216.7,54.5,216.4z"/>
</g>
<g>
	<path class="st1" d="M22.9,213.7c3,0,5.4-2.1,5.4-4.7s-2.4-4.7-5.4-4.7s-5.4,2.1-5.4,4.7C17.5,211.6,20,213.7,22.9,213.7z"/>
	<path class="st1" d="M33,216.4c-0.3-0.9-1.1-1.7-2.2-1.9H15.2c-0.7,0.1-1.3,0.5-1.7,1.1c-0.5,0.7-0.5,1.6-0.5,2.4l0,0v11.7l0,0
		c0.1,1,0.8,1.9,1.7,1.9l0,0l0,0l0,0l0,0c1,0,1.7-1,1.7-2.1V222l0,0c0.1-0.2,0.2-0.3,0.4-0.3s0.5,0.2,0.5,0.5v26.1
		c0,1.1,1.1,1.9,2.4,1.9H20c1.3,0,2.4-0.9,2.4-1.9v-14.9h1.5v14.9c0,1.1,1.1,1.9,2.4,1.9h0.3c1.3,0,2.4-0.9,2.4-1.9v-26.1
		c0-0.3,0.2-0.5,0.5-0.5c0.2,0,0.4,0.1,0.4,0.3v7.7l0,0c0.1,1,0.8,1.9,1.7,1.9l0,0l0,0l0,0l0,0c1,0,1.7-1,1.7-2.1v-12.3
		C33.2,217,33.1,216.7,33,216.4z"/>
</g>
<g>
	<path class="st1" d="M87.2,213.7c3,0,5.4-2.1,5.4-4.7s-2.4-4.7-5.4-4.7s-5.4,2.1-5.4,4.7C81.8,211.6,84.2,213.7,87.2,213.7z"/>
	<path class="st1" d="M97.3,216.4c-0.3-0.9-1.1-1.7-2.2-1.9H79.5c-0.7,0.1-1.3,0.5-1.7,1.1c-0.5,0.7-0.5,1.6-0.5,2.4l0,0v11.7l0,0
		c0.1,1,0.8,1.9,1.7,1.9l0,0l0,0l0,0l0,0c1,0,1.7-1,1.7-2.1V222l0,0c0.1-0.2,0.2-0.3,0.4-0.3c0.2,0,0.5,0.2,0.5,0.5v26.1
		c0,1.1,1.1,1.9,2.4,1.9h0.3c1.3,0,2.4-0.9,2.4-1.9v-14.9h1.5v14.9c0,1.1,1.1,1.9,2.4,1.9h0.3c1.3,0,2.4-0.9,2.4-1.9v-26.1
		c0-0.3,0.2-0.5,0.4-0.5c0.2,0,0.4,0.1,0.4,0.3v7.7l0,0c0.1,1,0.8,1.9,1.7,1.9l0,0l0,0l0,0l0,0c0.9,0,1.7-1,1.7-2.1v-12.3
		C97.5,217,97.4,216.7,97.3,216.4z"/>
</g>
<g>
	<path class="st1" d="M65.7,213.7c3,0,5.4-2.1,5.4-4.7s-2.4-4.7-5.4-4.7s-5.4,2.1-5.4,4.7C60.3,211.6,62.7,213.7,65.7,213.7z"/>
	<path class="st1" d="M75.8,216.4c-0.3-0.9-1.1-1.7-2.2-1.9H58c-0.7,0.1-1.3,0.5-1.7,1.1c-0.5,0.7-0.5,1.6-0.5,2.4l0,0v11.7l0,0
		c0.1,1,0.8,1.9,1.7,1.9l0,0l0,0l0,0l0,0c0.9,0,1.7-1,1.7-2.1V222l0,0c0.1-0.2,0.2-0.3,0.4-0.3c0.2,0,0.4,0.2,0.4,0.5v26.1
		c0,1.1,1.1,1.9,2.4,1.9h0.3c1.3,0,2.4-0.9,2.4-1.9v-14.9h1.5v14.9c0,1.1,1.1,1.9,2.4,1.9h0.3c1.3,0,2.4-0.9,2.4-1.9v-26.1
		c0-0.3,0.2-0.5,0.4-0.5c0.2,0,0.4,0.1,0.4,0.3v7.7l0,0c0.1,1,0.8,1.9,1.7,1.9l0,0l0,0l0,0l0,0c0.9,0,1.7-1,1.7-2.1v-12.3
		C75.9,217,75.9,216.7,75.8,216.4z"/>
</g>
<path class="st1" d="M129.8,214c3,0,5.4-2.1,5.4-4.7s-2.4-4.7-5.4-4.7s-5.4,2.1-5.4,4.7C124.5,211.9,126.9,214,129.8,214z"/>
<path class="st1" d="M139.9,216.7c-0.3-0.9-1.1-1.7-2.2-1.9h-15.6c-0.7,0.1-1.3,0.5-1.7,1.1c-0.5,0.7-0.6,1.6-0.6,2.4l0,0V230l0,0
	c0.1,1,0.8,1.9,1.7,1.9l0,0l0,0l0,0l0,0c0.9,0,1.7-1,1.7-2.1v-7.5l0,0c0.1-0.2,0.2-0.3,0.4-0.3s0.4,0.2,0.4,0.5v26.1
	c0,1.1,1.1,1.9,2.4,1.9h0.3c1.3,0,2.4-0.9,2.4-1.9v-14.9h1.5v14.9c0,1.1,1.1,1.9,2.4,1.9h0.3c1.3,0,2.4-0.9,2.4-1.9v-26.1
	c0-0.3,0.2-0.5,0.4-0.5s0.4,0.1,0.4,0.3v7.7l0,0c0.1,1,0.8,1.9,1.7,1.9l0,0l0,0l0,0l0,0c0.9,0,1.7-1,1.7-2.1v-12.3
	C140.1,217.3,140,217,139.9,216.7z"/>
<path class="st1" d="M108.3,214c3,0,5.4-2.1,5.4-4.7s-2.4-4.7-5.4-4.7s-5.4,2.1-5.4,4.7S105.3,214,108.3,214z"/>
<path class="st1" d="M118.4,216.7c-0.3-0.9-1.1-1.7-2.2-1.9h-15.6c-0.7,0.1-1.3,0.5-1.7,1.1c-0.5,0.7-0.6,1.6-0.6,2.4l0,0V230l0,0
	c0.1,1,0.8,1.9,1.7,1.9l0,0l0,0l0,0l0,0c0.9,0,1.7-1,1.7-2.1v-7.5l0,0c0.1-0.2,0.2-0.3,0.4-0.3c0.2,0,0.4,0.2,0.4,0.5v26.1
	c0,1.1,1.1,1.9,2.4,1.9h0.3c1.3,0,2.4-0.9,2.4-1.9v-14.9h1.5v14.9c0,1.1,1.1,1.9,2.4,1.9h0.3c1.3,0,2.4-0.9,2.4-1.9v-26.1
	c0-0.3,0.2-0.5,0.5-0.5c0.2,0,0.4,0.1,0.4,0.3v7.7l0,0c0.1,1,0.8,1.9,1.7,1.9l0,0l0,0l0,0l0,0c1,0,1.7-1,1.7-2.1v-12.3
	C118.6,217.3,118.5,217,118.4,216.7z"/>
<path class="st1" d="M172.6,214c3,0,5.4-2.1,5.4-4.7s-2.4-4.7-5.4-4.7s-5.4,2.1-5.4,4.7C167.2,211.9,169.6,214,172.6,214z"/>
<path class="st1" d="M182.7,216.7c-0.3-0.9-1.1-1.7-2.2-1.9h-15.6c-0.7,0.1-1.3,0.5-1.7,1.1c-0.5,0.7-0.6,1.6-0.6,2.4l0,0V230l0,0
	c0.1,1,0.8,1.9,1.7,1.9l0,0l0,0l0,0l0,0c1,0,1.7-1,1.7-2.1v-7.5l0,0c0.1-0.2,0.2-0.3,0.4-0.3s0.4,0.2,0.4,0.5v26.1
	c0,1.1,1.1,1.9,2.4,1.9h0.3c1.3,0,2.4-0.9,2.4-1.9v-14.9h1.5v14.9c0,1.1,1.1,1.9,2.4,1.9h0.3c1.3,0,2.4-0.9,2.4-1.9v-26.1
	c0-0.3,0.2-0.5,0.4-0.5s0.4,0.1,0.4,0.3v7.7l0,0c0.1,1,0.8,1.9,1.7,1.9l0,0l0,0l0,0l0,0c0.9,0,1.7-1,1.7-2.1v-12.3
	C182.8,217.3,182.8,217,182.7,216.7z"/>
<path class="st1" d="M151.1,214c3,0,5.4-2.1,5.4-4.7s-2.4-4.7-5.4-4.7s-5.4,2.1-5.4,4.7C145.7,211.9,148.1,214,151.1,214z"/>
<path class="st1" d="M161.2,216.7c-0.3-0.9-1.1-1.7-2.2-1.9h-15.6c-0.7,0.1-1.3,0.5-1.7,1.1c-0.5,0.7-0.5,1.6-0.5,2.4l0,0V230l0,0
	c0.1,1,0.8,1.9,1.7,1.9l0,0l0,0l0,0l0,0c0.9,0,1.7-1,1.7-2.1v-7.5l0,0c0.1-0.2,0.2-0.3,0.4-0.3s0.4,0.2,0.4,0.5v26.1
	c0,1.1,1.1,1.9,2.4,1.9h0.3c1.3,0,2.4-0.9,2.4-1.9v-14.9h1.5v14.9c0,1.1,1.1,1.9,2.4,1.9h0.3c1.3,0,2.4-0.9,2.4-1.9v-26.1
	c0-0.3,0.2-0.5,0.4-0.5s0.4,0.1,0.4,0.3v7.7l0,0c0.1,1,0.8,1.9,1.7,1.9l0,0l0,0l0,0l0,0c0.9,0,1.7-1,1.7-2.1v-12.3
	C161.3,217.3,161.3,217,161.2,216.7z"/>
<path class="st1" d="M215.2,214.1c3,0,5.4-2.1,5.4-4.7s-2.4-4.7-5.4-4.7s-5.4,2.1-5.4,4.7S212.2,214.1,215.2,214.1z"/>
<path class="st1" d="M225.3,216.8c-0.3-0.9-1.1-1.7-2.2-1.9h-15.6c-0.7,0.1-1.3,0.5-1.7,1.1c-0.5,0.7-0.5,1.6-0.5,2.4l0,0v11.7l0,0
	c0.1,1,0.8,1.9,1.7,1.9l0,0l0,0l0,0l0,0c0.9,0,1.7-1,1.7-2.1v-7.5l0,0c0.1-0.2,0.2-0.3,0.4-0.3s0.5,0.2,0.5,0.5v26.1
	c0,1.1,1.1,1.9,2.4,1.9h0.3c1.3,0,2.4-0.9,2.4-1.9v-14.9h1.5v14.9c0,1.1,1.1,1.9,2.4,1.9h0.3c1.3,0,2.4-0.9,2.4-1.9v-26.1
	c0-0.3,0.2-0.5,0.4-0.5s0.4,0.1,0.4,0.3v7.7l0,0c0.1,1,0.8,1.9,1.7,1.9l0,0l0,0l0,0l0,0c0.9,0,1.7-1,1.7-2.1v-12.3
	C225.4,217.3,225.4,217,225.3,216.8z"/>
<path class="st1" d="M193.6,214.1c3,0,5.4-2.1,5.4-4.7s-2.4-4.7-5.4-4.7s-5.4,2.1-5.4,4.7C188.3,212,190.7,214.1,193.6,214.1z"/>
<path class="st1" d="M183.7,230.2c0.1,1,0.8,1.9,1.7,1.9l0,0l0,0l0,0l0,0c0.9,0,1.7-1,1.7-2.1v-7.5l0,0c0.1-0.2,0.2-0.3,0.4-0.3
	s0.4,0.2,0.4,0.5v26.1c0,1.1,1.1,1.9,2.4,1.9h0.3c1.3,0,2.4-0.9,2.4-1.9v-14.9h1.5v14.9c0,1.1,1.1,1.9,2.4,1.9h0.3
	c1.3,0,2.4-0.9,2.4-1.9v-26.1c0-0.3,0.2-0.5,0.4-0.5s0.4,0.1,0.4,0.3v7.7l0,0c0.1,1,0.8,1.9,1.7,1.9l0,0l0,0l0,0l0,0
	c0.9,0,1.7-1,1.7-2.1v-12.3c0-0.3-0.1-0.6-0.2-0.9c-0.3-0.9-1.1-1.7-2.2-1.9h-15.6c-0.7,0.1-1.3,0.5-1.7,1.1"/>
<g>
	<path class="st1" d="M256.3,73.2c3,0,5.4-2.1,5.4-4.7s-2.4-4.7-5.4-4.7s-5.4,2.1-5.4,4.7S253.3,73.2,256.3,73.2z"/>
	<path class="st1" d="M266.4,75.9c-0.3-0.9-1.1-1.7-2.2-1.9h-15.6c-0.7,0.1-1.3,0.5-1.7,1.1c-0.5,0.7-0.5,1.6-0.5,2.4l0,0v11.7l0,0
		c0.1,1,0.8,1.9,1.7,1.9l0,0l0,0l0,0l0,0c1,0,1.7-1,1.7-2.1v-7.5l0,0c0.1-0.2,0.2-0.3,0.4-0.3c0.2,0,0.5,0.2,0.5,0.5v26.1
		c0,1.1,1.1,1.9,2.4,1.9h0.3c1.3,0,2.4-0.9,2.4-1.9V93h1.5v14.9c0,1.1,1.1,1.9,2.4,1.9h0.3c1.3,0,2.4-0.9,2.4-1.9V81.8
		c0-0.3,0.2-0.5,0.4-0.5c0.2,0,0.4,0.1,0.4,0.3v7.7l0,0c0.1,1,0.8,1.9,1.7,1.9l0,0l0,0l0,0l0,0c1,0,1.7-1,1.7-2.1V76.8
		C266.5,76.5,266.5,76.2,266.4,75.9z"/>
</g>
<g>
	<path class="st1" d="M234.8,73.2c3,0,5.4-2.1,5.4-4.7s-2.4-4.7-5.4-4.7s-5.4,2.1-5.4,4.7S231.8,73.2,234.8,73.2z"/>
	<path class="st1" d="M244.8,75.9c-0.3-0.9-1.1-1.7-2.2-1.9H227c-0.7,0.1-1.3,0.5-1.7,1.1c-0.5,0.7-0.5,1.6-0.5,2.4l0,0v11.7l0,0
		c0.1,1,0.8,1.9,1.7,1.9l0,0l0,0l0,0l0,0c0.9,0,1.7-1,1.7-2.1v-7.5l0,0c0.1-0.2,0.2-0.3,0.4-0.3s0.4,0.2,0.4,0.5v26.1
		c0,1.1,1.1,1.9,2.4,1.9h0.3c1.3,0,2.4-0.9,2.4-1.9V93h1.5v14.9c0,1.1,1.1,1.9,2.4,1.9h0.3c1.3,0,2.4-0.9,2.4-1.9V81.8
		c0-0.3,0.2-0.5,0.5-0.5c0.2,0,0.4,0.1,0.4,0.3v7.7l0,0c0.1,1,0.8,1.9,1.7,1.9l0,0l0,0l0,0l0,0c0.9,0,1.7-1,1.7-2.1V76.8
		C245,76.5,245,76.2,244.8,75.9z"/>
</g>
<g>
	<path class="st1" d="M299,73.2c3,0,5.4-2.1,5.4-4.7s-2.4-4.7-5.4-4.7s-5.4,2.1-5.4,4.7S296,73.2,299,73.2z"/>
	<path class="st1" d="M309.1,75.9c-0.3-0.9-1.1-1.7-2.2-1.9h-15.6c-0.7,0.1-1.3,0.5-1.7,1.1c-0.5,0.7-0.5,1.6-0.5,2.4l0,0v11.7l0,0
		c0.1,1,0.8,1.9,1.7,1.9l0,0l0,0l0,0l0,0c1,0,1.7-1,1.7-2.1v-7.5l0,0c0.1-0.2,0.2-0.3,0.4-0.3c0.2,0,0.4,0.2,0.4,0.5v26.1
		c0,1.1,1.1,1.9,2.4,1.9h0.3c1.3,0,2.4-0.9,2.4-1.9V93h1.5v14.9c0,1.1,1.1,1.9,2.4,1.9h0.3c1.3,0,2.4-0.9,2.4-1.9V81.8
		c0-0.3,0.2-0.5,0.4-0.5c0.2,0,0.4,0.1,0.4,0.3v7.7l0,0c0.1,1,0.8,1.9,1.7,1.9l0,0l0,0l0,0l0,0c1,0,1.7-1,1.7-2.1V76.8
		C309.3,76.5,309.2,76.2,309.1,75.9z"/>
</g>
<g>
	<path class="st1" d="M277.5,73.2c3,0,5.4-2.1,5.4-4.7s-2.4-4.7-5.4-4.7s-5.4,2.1-5.4,4.7S274.5,73.2,277.5,73.2z"/>
	<path class="st1" d="M287.6,75.9c-0.3-0.9-1.1-1.7-2.2-1.9h-15.6c-0.7,0.1-1.3,0.5-1.7,1.1c-0.5,0.7-0.6,1.6-0.6,2.4l0,0v11.7l0,0
		c0.1,1,0.8,1.9,1.7,1.9l0,0l0,0l0,0l0,0c1,0,1.7-1,1.7-2.1v-7.5l0,0c0.1-0.2,0.2-0.3,0.4-0.3c0.2,0,0.5,0.2,0.5,0.5v26.1
		c0,1.1,1.1,1.9,2.4,1.9h0.3c1.3,0,2.4-0.9,2.4-1.9V93h1.5v14.9c0,1.1,1.1,1.9,2.4,1.9h0.3c1.3,0,2.4-0.9,2.4-1.9V81.8
		c0-0.3,0.2-0.5,0.5-0.5c0.2,0,0.4,0.1,0.4,0.3v7.7l0,0c0.1,1,0.8,1.9,1.7,1.9l0,0l0,0l0,0l0,0c1,0,1.7-1,1.7-2.1V76.8
		C287.8,76.5,287.7,76.2,287.6,75.9z"/>
</g>
<path class="st1" d="M341.7,73.5c3,0,5.4-2.1,5.4-4.7s-2.4-4.7-5.4-4.7s-5.4,2.1-5.4,4.7C336.3,71.4,338.7,73.5,341.7,73.5z"/>
<path class="st1" d="M351.7,76.2c-0.3-0.9-1.1-1.7-2.2-1.9h-15.6c-0.7,0.1-1.3,0.5-1.7,1.1c-0.5,0.7-0.6,1.6-0.6,2.4l0,0v11.7l0,0
	c0.1,1,0.8,1.9,1.7,1.9l0,0l0,0l0,0l0,0c1,0,1.7-1,1.7-2.1v-7.5l0,0c0.1-0.2,0.2-0.3,0.4-0.3c0.2,0,0.5,0.2,0.5,0.5v26.1
	c0,1.1,1.1,1.9,2.4,1.9h0.3c1.3,0,2.4-0.9,2.4-1.9V93.2h1.5v14.9c0,1.1,1.1,1.9,2.4,1.9h0.3c1.3,0,2.4-0.9,2.4-1.9V82
	c0-0.3,0.2-0.5,0.5-0.5c0.2,0,0.4,0.1,0.4,0.3v7.7l0,0c0.1,1,0.8,1.9,1.7,1.9l0,0l0,0l0,0l0,0c0.9,0,1.7-1,1.7-2.1V77
	C351.9,76.8,351.9,76.5,351.7,76.2z"/>
<path class="st1" d="M320.1,73.5c3,0,5.4-2.1,5.4-4.7s-2.4-4.7-5.4-4.7s-5.4,2.1-5.4,4.7C314.8,71.4,317.2,73.5,320.1,73.5z"/>
<path class="st1" d="M330.2,76.2c-0.3-0.9-1.1-1.7-2.2-1.9h-15.6c-0.7,0.1-1.3,0.5-1.7,1.1c-0.5,0.7-0.6,1.6-0.6,2.4l0,0v11.7l0,0
	c0.1,1,0.8,1.9,1.7,1.9l0,0l0,0l0,0l0,0c0.9,0,1.7-1,1.7-2.1v-7.5l0,0c0.1-0.2,0.2-0.3,0.4-0.3c0.2,0,0.5,0.2,0.5,0.5v26.1
	c0,1.1,1.1,1.9,2.4,1.9h0.3c1.3,0,2.4-0.9,2.4-1.9V93.2h1.5v14.9c0,1.1,1.1,1.9,2.4,1.9h0.3c1.3,0,2.4-0.9,2.4-1.9V82
	c0-0.3,0.2-0.5,0.5-0.5c0.2,0,0.4,0.1,0.4,0.3v7.7l0,0c0.1,1,0.8,1.9,1.7,1.9l0,0l0,0l0,0l0,0c0.9,0,1.7-1,1.7-2.1V77
	C330.4,76.8,330.3,76.5,330.2,76.2z"/>
<path class="st1" d="M384.4,73.5c3,0,5.4-2.1,5.4-4.7s-2.4-4.7-5.4-4.7s-5.4,2.1-5.4,4.7S381.4,73.5,384.4,73.5z"/>
<path class="st1" d="M394.5,76.2c-0.3-0.9-1.1-1.7-2.2-1.9h-15.6c-0.7,0.1-1.3,0.5-1.7,1.1c-0.5,0.7-0.6,1.6-0.6,2.4l0,0v11.7l0,0
	c0.1,1,0.8,1.9,1.7,1.9l0,0l0,0l0,0l0,0c1,0,1.7-1,1.7-2.1v-7.5l0,0c0.1-0.2,0.2-0.3,0.4-0.3c0.2,0,0.5,0.2,0.5,0.5v26.1
	c0,1.1,1.1,1.9,2.4,1.9h0.3c1.3,0,2.4-0.9,2.4-1.9V93.2h1.5v14.9c0,1.1,1.1,1.9,2.4,1.9h0.3c1.3,0,2.4-0.9,2.4-1.9V82
	c0-0.3,0.2-0.5,0.5-0.5c0.2,0,0.4,0.1,0.4,0.3v7.7l0,0c0.1,1,0.8,1.9,1.7,1.9l0,0l0,0l0,0l0,0c1,0,1.7-1,1.7-2.1V77
	C394.7,76.8,394.6,76.5,394.5,76.2z"/>
<path class="st1" d="M362.9,73.5c3,0,5.4-2.1,5.4-4.7s-2.4-4.7-5.4-4.7s-5.4,2.1-5.4,4.7S359.9,73.5,362.9,73.5z"/>
<path class="st1" d="M373,76.2c-0.3-0.9-1.1-1.7-2.2-1.9h-15.6c-0.7,0.1-1.3,0.5-1.7,1.1c-0.5,0.7-0.6,1.6-0.6,2.4l0,0v11.7l0,0
	c0.1,1,0.8,1.9,1.7,1.9l0,0l0,0l0,0l0,0c1,0,1.7-1,1.7-2.1v-7.5l0,0c0.1-0.2,0.2-0.3,0.4-0.3c0.2,0,0.5,0.2,0.5,0.5v26.1
	c0,1.1,1.1,1.9,2.4,1.9h0.3c1.3,0,2.4-0.9,2.4-1.9V93.2h1.5v14.9c0,1.1,1.1,1.9,2.4,1.9h0.3c1.3,0,2.4-0.9,2.4-1.9V82
	c0-0.3,0.2-0.5,0.5-0.5c0.2,0,0.4,0.1,0.4,0.3v7.7l0,0c0.1,1,0.8,1.9,1.7,1.9l0,0l0,0l0,0l0,0c0.9,0,1.7-1,1.7-2.1V77
	C373.1,76.8,373.1,76.5,373,76.2z"/>
<path class="st1" d="M427,73.6c3,0,5.4-2.1,5.4-4.7s-2.4-4.7-5.4-4.7s-5.4,2.1-5.4,4.7S424,73.6,427,73.6z"/>
<path class="st1" d="M437.1,76.3c-0.3-0.9-1.1-1.7-2.2-1.9h-15.6c-0.7,0.1-1.3,0.5-1.7,1.1c-0.5,0.7-0.6,1.6-0.6,2.4l0,0v11.7l0,0
	c0.1,1,0.8,1.9,1.7,1.9l0,0l0,0l0,0l0,0c1,0,1.7-1,1.7-2.1v-7.5l0,0c0.1-0.2,0.2-0.3,0.4-0.3c0.2,0,0.5,0.2,0.5,0.5v26.1
	c0,1.1,1.1,1.9,2.4,1.9h0.3c1.3,0,2.4-0.9,2.4-1.9V93.3h1.5v14.9c0,1.1,1.1,1.9,2.4,1.9h0.3c1.3,0,2.4-0.9,2.4-1.9V82.1
	c0-0.3,0.2-0.5,0.5-0.5c0.2,0,0.4,0.1,0.4,0.3v7.7l0,0c0.1,1,0.8,1.9,1.7,1.9l0,0l0,0l0,0l0,0c0.9,0,1.7-1,1.7-2.1V77.1
	C437.2,76.9,437.2,76.6,437.1,76.3z"/>
<path class="st1" d="M405.5,73.6c3,0,5.4-2.1,5.4-4.7s-2.4-4.7-5.4-4.7s-5.4,2.1-5.4,4.7S402.5,73.6,405.5,73.6z"/>
<path class="st1" d="M395.5,89.7c0.1,1,0.8,1.9,1.7,1.9l0,0l0,0l0,0l0,0c0.9,0,1.7-1,1.7-2.1V82l0,0c0.1-0.2,0.2-0.3,0.4-0.3
	c0.2,0,0.5,0.2,0.5,0.5v26.1c0,1.1,1.1,1.9,2.4,1.9h0.3c1.3,0,2.4-0.9,2.4-1.9V93.4h1.5v14.9c0,1.1,1.1,1.9,2.4,1.9h0.3
	c1.3,0,2.4-0.9,2.4-1.9V82.2c0-0.3,0.2-0.5,0.5-0.5c0.2,0,0.4,0.1,0.4,0.3v7.7l0,0c0.1,1,0.8,1.9,1.7,1.9l0,0l0,0l0,0l0,0
	c0.9,0,1.7-1,1.7-2.1V77.2c0-0.3-0.1-0.6-0.2-0.9c-0.3-0.9-1.1-1.7-2.2-1.9h-15.6c-0.7,0.1-1.3,0.5-1.7,1.1"/>
<g>
	<path class="st1" d="M256.3,120c3,0,5.4-2.1,5.4-4.7c0-2.6-2.4-4.7-5.4-4.7s-5.4,2.1-5.4,4.7S253.3,120,256.3,120z"/>
	<path class="st1" d="M266.4,122.7c-0.3-0.9-1.1-1.7-2.2-1.9h-15.6c-0.7,0.1-1.3,0.5-1.7,1.1c-0.5,0.7-0.5,1.6-0.5,2.4l0,0V136l0,0
		c0.1,1,0.8,1.9,1.7,1.9l0,0l0,0l0,0l0,0c1,0,1.7-1,1.7-2.1v-7.5l0,0c0.1-0.2,0.2-0.3,0.4-0.3c0.2,0,0.5,0.2,0.5,0.5v26.1
		c0,1.1,1.1,1.9,2.4,1.9h0.3c1.3,0,2.4-0.9,2.4-1.9v-14.9h1.5v14.9c0,1.1,1.1,1.9,2.4,1.9h0.3c1.3,0,2.4-0.9,2.4-1.9v-26.1
		c0-0.3,0.2-0.5,0.4-0.5c0.2,0,0.4,0.1,0.4,0.3v7.7l0,0c0.1,1,0.8,1.9,1.7,1.9l0,0l0,0l0,0l0,0c1,0,1.7-1,1.7-2.1v-12.3
		C266.5,123.3,266.5,123,266.4,122.7z"/>
</g>
<g>
	<path class="st1" d="M234.8,120c3,0,5.4-2.1,5.4-4.7c0-2.6-2.4-4.7-5.4-4.7s-5.4,2.1-5.4,4.7S231.8,120,234.8,120z"/>
	<path class="st1" d="M244.8,122.7c-0.3-0.9-1.1-1.7-2.2-1.9H227c-0.7,0.1-1.3,0.5-1.7,1.1c-0.5,0.7-0.5,1.6-0.5,2.4l0,0V136l0,0
		c0.1,1,0.8,1.9,1.7,1.9l0,0l0,0l0,0l0,0c0.9,0,1.7-1,1.7-2.1v-7.5l0,0c0.1-0.2,0.2-0.3,0.4-0.3s0.4,0.2,0.4,0.5v26.1
		c0,1.1,1.1,1.9,2.4,1.9h0.3c1.3,0,2.4-0.9,2.4-1.9v-14.9h1.5v14.9c0,1.1,1.1,1.9,2.4,1.9h0.3c1.3,0,2.4-0.9,2.4-1.9v-26.1
		c0-0.3,0.2-0.5,0.5-0.5c0.2,0,0.4,0.1,0.4,0.3v7.7l0,0c0.1,1,0.8,1.9,1.7,1.9l0,0l0,0l0,0l0,0c0.9,0,1.7-1,1.7-2.1v-12.3
		C245,123.3,245,123,244.8,122.7z"/>
</g>
<g>
	<path class="st1" d="M299,120c3,0,5.4-2.1,5.4-4.7c0-2.6-2.4-4.7-5.4-4.7s-5.4,2.1-5.4,4.7S296,120,299,120z"/>
	<path class="st1" d="M309.1,122.7c-0.3-0.9-1.1-1.7-2.2-1.9h-15.6c-0.7,0.1-1.3,0.5-1.7,1.1c-0.5,0.7-0.5,1.6-0.5,2.4l0,0V136l0,0
		c0.1,1,0.8,1.9,1.7,1.9l0,0l0,0l0,0l0,0c1,0,1.7-1,1.7-2.1v-7.5l0,0c0.1-0.2,0.2-0.3,0.4-0.3c0.2,0,0.4,0.2,0.4,0.5v26.1
		c0,1.1,1.1,1.9,2.4,1.9h0.3c1.3,0,2.4-0.9,2.4-1.9v-14.9h1.5v14.9c0,1.1,1.1,1.9,2.4,1.9h0.3c1.3,0,2.4-0.9,2.4-1.9v-26.1
		c0-0.3,0.2-0.5,0.4-0.5c0.2,0,0.4,0.1,0.4,0.3v7.7l0,0c0.1,1,0.8,1.9,1.7,1.9l0,0l0,0l0,0l0,0c1,0,1.7-1,1.7-2.1v-12.3
		C309.3,123.3,309.2,123,309.1,122.7z"/>
</g>
<g>
	<path class="st1" d="M277.5,120c3,0,5.4-2.1,5.4-4.7c0-2.6-2.4-4.7-5.4-4.7s-5.4,2.1-5.4,4.7S274.5,120,277.5,120z"/>
	<path class="st1" d="M287.6,122.7c-0.3-0.9-1.1-1.7-2.2-1.9h-15.6c-0.7,0.1-1.3,0.5-1.7,1.1c-0.5,0.7-0.6,1.6-0.6,2.4l0,0V136l0,0
		c0.1,1,0.8,1.9,1.7,1.9l0,0l0,0l0,0l0,0c1,0,1.7-1,1.7-2.1v-7.5l0,0c0.1-0.2,0.2-0.3,0.4-0.3c0.2,0,0.5,0.2,0.5,0.5v26.1
		c0,1.1,1.1,1.9,2.4,1.9h0.3c1.3,0,2.4-0.9,2.4-1.9v-14.9h1.5v14.9c0,1.1,1.1,1.9,2.4,1.9h0.3c1.3,0,2.4-0.9,2.4-1.9v-26.1
		c0-0.3,0.2-0.5,0.5-0.5c0.2,0,0.4,0.1,0.4,0.3v7.7l0,0c0.1,1,0.8,1.9,1.7,1.9l0,0l0,0l0,0l0,0c1,0,1.7-1,1.7-2.1v-12.3
		C287.8,123.3,287.7,123,287.6,122.7z"/>
</g>
<path class="st1" d="M341.7,120.3c3,0,5.4-2.1,5.4-4.7c0-2.6-2.4-4.7-5.4-4.7s-5.4,2.1-5.4,4.7C336.3,118.2,338.7,120.3,341.7,120.3
	z"/>
<path class="st1" d="M351.7,123c-0.3-0.9-1.1-1.7-2.2-1.9h-15.6c-0.7,0.1-1.3,0.5-1.7,1.1c-0.5,0.7-0.6,1.6-0.6,2.4l0,0v11.7l0,0
	c0.1,1,0.8,1.9,1.7,1.9l0,0l0,0l0,0l0,0c1,0,1.7-1,1.7-2.1v-7.5l0,0c0.1-0.2,0.2-0.3,0.4-0.3c0.2,0,0.5,0.2,0.5,0.5V155
	c0,1.1,1.1,1.9,2.4,1.9h0.3c1.3,0,2.4-0.9,2.4-1.9v-14.9h1.5V155c0,1.1,1.1,1.9,2.4,1.9h0.3c1.3,0,2.4-0.9,2.4-1.9v-26.1
	c0-0.3,0.2-0.5,0.5-0.5c0.2,0,0.4,0.1,0.4,0.3v7.7l0,0c0.1,1,0.8,1.9,1.7,1.9l0,0l0,0l0,0l0,0c0.9,0,1.7-1,1.7-2.1v-12.3
	C351.9,123.6,351.9,123.3,351.7,123z"/>
<path class="st1" d="M320.1,120.3c3,0,5.4-2.1,5.4-4.7c0-2.6-2.4-4.7-5.4-4.7s-5.4,2.1-5.4,4.7C314.8,118.2,317.2,120.3,320.1,120.3
	z"/>
<path class="st1" d="M330.2,123c-0.3-0.9-1.1-1.7-2.2-1.9h-15.6c-0.7,0.1-1.3,0.5-1.7,1.1c-0.5,0.7-0.6,1.6-0.6,2.4l0,0v11.7l0,0
	c0.1,1,0.8,1.9,1.7,1.9l0,0l0,0l0,0l0,0c0.9,0,1.7-1,1.7-2.1v-7.5l0,0c0.1-0.2,0.2-0.3,0.4-0.3c0.2,0,0.5,0.2,0.5,0.5V155
	c0,1.1,1.1,1.9,2.4,1.9h0.3c1.3,0,2.4-0.9,2.4-1.9v-14.9h1.5V155c0,1.1,1.1,1.9,2.4,1.9h0.3c1.3,0,2.4-0.9,2.4-1.9v-26.1
	c0-0.3,0.2-0.5,0.5-0.5c0.2,0,0.4,0.1,0.4,0.3v7.7l0,0c0.1,1,0.8,1.9,1.7,1.9l0,0l0,0l0,0l0,0c0.9,0,1.7-1,1.7-2.1v-12.3
	C330.4,123.6,330.3,123.3,330.2,123z"/>
<path class="st1" d="M384.4,120.3c3,0,5.4-2.1,5.4-4.7c0-2.6-2.4-4.7-5.4-4.7s-5.4,2.1-5.4,4.7S381.4,120.3,384.4,120.3z"/>
<path class="st1" d="M394.5,123c-0.3-0.9-1.1-1.7-2.2-1.9h-15.6c-0.7,0.1-1.3,0.5-1.7,1.1c-0.5,0.7-0.6,1.6-0.6,2.4l0,0v11.7l0,0
	c0.1,1,0.8,1.9,1.7,1.9l0,0l0,0l0,0l0,0c1,0,1.7-1,1.7-2.1v-7.5l0,0c0.1-0.2,0.2-0.3,0.4-0.3c0.2,0,0.5,0.2,0.5,0.5V155
	c0,1.1,1.1,1.9,2.4,1.9h0.3c1.3,0,2.4-0.9,2.4-1.9v-14.9h1.5V155c0,1.1,1.1,1.9,2.4,1.9h0.3c1.3,0,2.4-0.9,2.4-1.9v-26.1
	c0-0.3,0.2-0.5,0.5-0.5c0.2,0,0.4,0.1,0.4,0.3v7.7l0,0c0.1,1,0.8,1.9,1.7,1.9l0,0l0,0l0,0l0,0c1,0,1.7-1,1.7-2.1v-12.3
	C394.7,123.6,394.6,123.3,394.5,123z"/>
<path class="st1" d="M362.9,120.3c3,0,5.4-2.1,5.4-4.7c0-2.6-2.4-4.7-5.4-4.7s-5.4,2.1-5.4,4.7S359.9,120.3,362.9,120.3z"/>
<path class="st1" d="M373,123c-0.3-0.9-1.1-1.7-2.2-1.9h-15.6c-0.7,0.1-1.3,0.5-1.7,1.1c-0.5,0.7-0.6,1.6-0.6,2.4l0,0v11.7l0,0
	c0.1,1,0.8,1.9,1.7,1.9l0,0l0,0l0,0l0,0c1,0,1.7-1,1.7-2.1v-7.5l0,0c0.1-0.2,0.2-0.3,0.4-0.3c0.2,0,0.5,0.2,0.5,0.5V155
	c0,1.1,1.1,1.9,2.4,1.9h0.3c1.3,0,2.4-0.9,2.4-1.9v-14.9h1.5V155c0,1.1,1.1,1.9,2.4,1.9h0.3c1.3,0,2.4-0.9,2.4-1.9v-26.1
	c0-0.3,0.2-0.5,0.5-0.5c0.2,0,0.4,0.1,0.4,0.3v7.7l0,0c0.1,1,0.8,1.9,1.7,1.9l0,0l0,0l0,0l0,0c0.9,0,1.7-1,1.7-2.1v-12.3
	C373.1,123.6,373.1,123.3,373,123z"/>
<path class="st1" d="M427,120.4c3,0,5.4-2.1,5.4-4.7S430,111,427,111s-5.4,2.1-5.4,4.7C421.6,118.3,424,120.4,427,120.4z"/>
<path class="st1" d="M437.1,123.1c-0.3-0.9-1.1-1.7-2.2-1.9h-15.6c-0.7,0.1-1.3,0.5-1.7,1.1c-0.5,0.7-0.6,1.6-0.6,2.4l0,0v11.7l0,0
	c0.1,1,0.8,1.9,1.7,1.9l0,0l0,0l0,0l0,0c1,0,1.7-1,1.7-2.1v-7.5l0,0c0.1-0.2,0.2-0.3,0.4-0.3c0.2,0,0.5,0.2,0.5,0.5V155
	c0,1.1,1.1,1.9,2.4,1.9h0.3c1.3,0,2.4-0.9,2.4-1.9v-14.9h1.5V155c0,1.1,1.1,1.9,2.4,1.9h0.3c1.3,0,2.4-0.9,2.4-1.9v-26.1
	c0-0.3,0.2-0.5,0.5-0.5c0.2,0,0.4,0.1,0.4,0.3v7.7l0,0c0.1,1,0.8,1.9,1.7,1.9l0,0l0,0l0,0l0,0c0.9,0,1.7-1,1.7-2.1V124
	C437.2,123.7,437.2,123.4,437.1,123.1z"/>
<path class="st1" d="M405.5,120.4c3,0,5.4-2.1,5.4-4.7s-2.4-4.7-5.4-4.7s-5.4,2.1-5.4,4.7C400.1,118.3,402.5,120.4,405.5,120.4z"/>
<path class="st1" d="M395.5,136.5c0.1,1,0.8,1.9,1.7,1.9l0,0l0,0l0,0l0,0c0.9,0,1.7-1,1.7-2.1v-7.5l0,0c0.1-0.2,0.2-0.3,0.4-0.3
	c0.2,0,0.5,0.2,0.5,0.5v26.1c0,1.1,1.1,1.9,2.4,1.9h0.3c1.3,0,2.4-0.9,2.4-1.9v-14.9h1.5v14.9c0,1.1,1.1,1.9,2.4,1.9h0.3
	c1.3,0,2.4-0.9,2.4-1.9V129c0-0.3,0.2-0.5,0.5-0.5c0.2,0,0.4,0.1,0.4,0.3v7.7l0,0c0.1,1,0.8,1.9,1.7,1.9l0,0l0,0l0,0l0,0
	c0.9,0,1.7-1,1.7-2.1V124c0-0.3-0.1-0.6-0.2-0.9c-0.3-0.9-1.1-1.7-2.2-1.9h-15.6c-0.7,0.1-1.3,0.5-1.7,1.1"/>
<g>
	<path class="st1" d="M257.8,166.9c3,0,5.4-2.1,5.4-4.7s-2.4-4.7-5.4-4.7s-5.4,2.1-5.4,4.7C252.4,164.8,254.8,166.9,257.8,166.9z"/>
	<path class="st1" d="M267.8,169.6c-0.3-0.9-1.1-1.7-2.2-1.9H250c-0.7,0.1-1.3,0.5-1.7,1.1c-0.5,0.7-0.5,1.6-0.5,2.4l0,0v11.7l0,0
		c0.1,1,0.8,1.9,1.7,1.9l0,0l0,0l0,0l0,0c0.9,0,1.7-1,1.7-2.1v-7.5l0,0c0.1-0.2,0.2-0.3,0.4-0.3c0.2,0,0.4,0.2,0.4,0.5v26.1
		c0,1.1,1.1,1.9,2.4,1.9h0.3c1.3,0,2.4-0.9,2.4-1.9v-14.9h1.5v14.9c0,1.1,1.1,1.9,2.4,1.9h0.3c1.3,0,2.4-0.9,2.4-1.9v-26.1
		c0-0.3,0.2-0.5,0.4-0.5c0.2,0,0.4,0.1,0.4,0.3v7.7l0,0c0.1,1,0.8,1.9,1.7,1.9l0,0l0,0l0,0l0,0c1,0,1.7-1,1.7-2.1v-12.3
		C268,170.2,268,169.9,267.8,169.6z"/>
</g>
<g>
	<path class="st1" d="M236.2,166.9c3,0,5.4-2.1,5.4-4.7s-2.4-4.7-5.4-4.7s-5.4,2.1-5.4,4.7C230.8,164.8,233.3,166.9,236.2,166.9z"/>
	<path class="st1" d="M246.3,169.6c-0.3-0.9-1.1-1.7-2.2-1.9h-15.6c-0.7,0.1-1.3,0.5-1.7,1.1c-0.5,0.7-0.6,1.6-0.6,2.4l0,0v11.7l0,0
		c0.1,1,0.8,1.9,1.7,1.9l0,0l0,0l0,0l0,0c0.9,0,1.7-1,1.7-2.1v-7.5l0,0c0.1-0.2,0.2-0.3,0.4-0.3s0.5,0.2,0.5,0.5v26.1
		c0,1.1,1.1,1.9,2.4,1.9h0.3c1.3,0,2.4-0.9,2.4-1.9v-14.9h1.5v14.9c0,1.1,1.1,1.9,2.4,1.9h0.3c1.3,0,2.4-0.9,2.4-1.9v-26.1
		c0-0.3,0.2-0.5,0.4-0.5c0.2,0,0.4,0.1,0.4,0.3v7.7l0,0c0.1,1,0.8,1.9,1.7,1.9l0,0l0,0l0,0l0,0c1,0,1.7-1,1.7-2.1v-12.3
		C246.5,170.2,246.4,169.9,246.3,169.6z"/>
</g>
<g>
	<path class="st1" d="M300.5,166.9c3,0,5.4-2.1,5.4-4.7s-2.4-4.7-5.4-4.7s-5.4,2.1-5.4,4.7C295.1,164.8,297.5,166.9,300.5,166.9z"/>
	<path class="st1" d="M310.6,169.6c-0.3-0.9-1.1-1.7-2.2-1.9h-15.6c-0.7,0.1-1.3,0.5-1.7,1.1c-0.5,0.7-0.5,1.6-0.5,2.4l0,0v11.7l0,0
		c0.1,1,0.8,1.9,1.7,1.9l0,0l0,0l0,0l0,0c0.9,0,1.7-1,1.7-2.1v-7.5l0,0c0.1-0.2,0.2-0.3,0.4-0.3c0.2,0,0.4,0.2,0.4,0.5v26.1
		c0,1.1,1.1,1.9,2.4,1.9h0.3c1.3,0,2.4-0.9,2.4-1.9v-14.9h1.5v14.9c0,1.1,1.1,1.9,2.4,1.9h0.3c1.3,0,2.4-0.9,2.4-1.9v-26.1
		c0-0.3,0.2-0.5,0.5-0.5c0.2,0,0.4,0.1,0.4,0.3v7.7l0,0c0.1,1,0.8,1.9,1.7,1.9l0,0l0,0l0,0l0,0c1,0,1.7-1,1.7-2.1v-12.3
		C310.8,170.2,310.7,169.9,310.6,169.6z"/>
</g>
<g>
	<path class="st1" d="M279,166.9c3,0,5.4-2.1,5.4-4.7s-2.4-4.7-5.4-4.7s-5.4,2.1-5.4,4.7C273.6,164.8,276,166.9,279,166.9z"/>
	<path class="st1" d="M289.1,169.6c-0.3-0.9-1.1-1.7-2.2-1.9h-15.6c-0.7,0.1-1.3,0.5-1.7,1.1c-0.5,0.7-0.5,1.6-0.5,2.4l0,0v11.7l0,0
		c0.1,1,0.8,1.9,1.7,1.9l0,0l0,0l0,0l0,0c1,0,1.7-1,1.7-2.1v-7.5l0,0c0.1-0.2,0.2-0.3,0.4-0.3c0.2,0,0.4,0.2,0.4,0.5v26.1
		c0,1.1,1.1,1.9,2.4,1.9h0.3c1.3,0,2.4-0.9,2.4-1.9v-14.9h1.5v14.9c0,1.1,1.1,1.9,2.4,1.9h0.3c1.3,0,2.4-0.9,2.4-1.9v-26.1
		c0-0.3,0.2-0.5,0.4-0.5c0.2,0,0.4,0.1,0.4,0.3v7.7l0,0c0.1,1,0.8,1.9,1.7,1.9l0,0l0,0l0,0l0,0c1,0,1.7-1,1.7-2.1v-12.3
		C289.2,170.2,289.2,169.9,289.1,169.6z"/>
</g>
<path class="st1" d="M343.1,167.2c3,0,5.4-2.1,5.4-4.7s-2.4-4.7-5.4-4.7s-5.4,2.1-5.4,4.7C337.8,165.1,340.2,167.2,343.1,167.2z"/>
<path class="st1" d="M353.2,169.9c-0.3-0.9-1.1-1.7-2.2-1.9h-15.6c-0.7,0.1-1.3,0.5-1.7,1.1c-0.5,0.7-0.5,1.6-0.5,2.4l0,0v11.7l0,0
	c0.1,1,0.8,1.9,1.7,1.9l0,0l0,0l0,0l0,0c1,0,1.7-1,1.7-2.1v-7.5l0,0c0.1-0.2,0.2-0.3,0.4-0.3c0.2,0,0.4,0.2,0.4,0.5v26.1
	c0,1.1,1.1,1.9,2.4,1.9h0.3c1.3,0,2.4-0.9,2.4-1.9V187h1.5v14.9c0,1.1,1.1,1.9,2.4,1.9h0.3c1.3,0,2.4-0.9,2.4-1.9v-26.1
	c0-0.3,0.2-0.5,0.4-0.5c0.2,0,0.4,0.1,0.4,0.3v7.7l0,0c0.1,1,0.8,1.9,1.7,1.9l0,0l0,0l0,0l0,0c1,0,1.7-1,1.7-2.1v-12.3
	C353.4,170.5,353.3,170.2,353.2,169.9z"/>
<path class="st1" d="M321.6,167.2c3,0,5.4-2.1,5.4-4.7s-2.4-4.7-5.4-4.7s-5.4,2.1-5.4,4.7C316.2,165.1,318.7,167.2,321.6,167.2z"/>
<path class="st1" d="M331.7,169.9c-0.3-0.9-1.1-1.7-2.2-1.9h-15.6c-0.7,0.1-1.3,0.5-1.7,1.1c-0.5,0.7-0.5,1.6-0.5,2.4l0,0v11.7l0,0
	c0.1,1,0.8,1.9,1.7,1.9l0,0l0,0l0,0l0,0c1,0,1.7-1,1.7-2.1v-7.5l0,0c0.1-0.2,0.2-0.3,0.4-0.3c0.2,0,0.4,0.2,0.4,0.5v26.1
	c0,1.1,1.1,1.9,2.4,1.9h0.3c1.3,0,2.4-0.9,2.4-1.9V187h1.5v14.9c0,1.1,1.1,1.9,2.4,1.9h0.3c1.3,0,2.4-0.9,2.4-1.9v-26.1
	c0-0.3,0.2-0.5,0.4-0.5c0.2,0,0.4,0.1,0.4,0.3v7.7l0,0c0.1,1,0.8,1.9,1.7,1.9l0,0l0,0l0,0l0,0c1,0,1.7-1,1.7-2.1v-12.3
	C331.9,170.5,331.8,170.2,331.7,169.9z"/>
<path class="st1" d="M385.9,167.2c3,0,5.4-2.1,5.4-4.7s-2.4-4.7-5.4-4.7s-5.4,2.1-5.4,4.7C380.5,165.1,382.9,167.2,385.9,167.2z"/>
<path class="st1" d="M396,169.9c-0.3-0.9-1.1-1.7-2.2-1.9h-15.6c-0.7,0.1-1.3,0.5-1.7,1.1c-0.5,0.7-0.5,1.6-0.5,2.4l0,0v11.7l0,0
	c0.1,1,0.8,1.9,1.7,1.9l0,0l0,0l0,0l0,0c1,0,1.7-1,1.7-2.1v-7.5l0,0c0.1-0.2,0.2-0.3,0.4-0.3c0.2,0,0.4,0.2,0.4,0.5v26.1
	c0,1.1,1.1,1.9,2.4,1.9h0.3c1.3,0,2.4-0.9,2.4-1.9V187h1.5v14.9c0,1.1,1.1,1.9,2.4,1.9h0.3c1.3,0,2.4-0.9,2.4-1.9v-26.1
	c0-0.3,0.2-0.5,0.4-0.5c0.2,0,0.4,0.1,0.4,0.3v7.7l0,0c0.1,1,0.8,1.9,1.7,1.9l0,0l0,0l0,0l0,0c1,0,1.7-1,1.7-2.1v-12.3
	C396.2,170.5,396.1,170.2,396,169.9z"/>
<path class="st1" d="M364.4,167.2c3,0,5.4-2.1,5.4-4.7s-2.4-4.7-5.4-4.7s-5.4,2.1-5.4,4.7C359,165.1,361.4,167.2,364.4,167.2z"/>
<path class="st1" d="M374.5,169.9c-0.3-0.9-1.1-1.7-2.2-1.9h-15.6c-0.7,0.1-1.3,0.5-1.7,1.1c-0.5,0.7-0.5,1.6-0.5,2.4l0,0v11.7l0,0
	c0.1,1,0.8,1.9,1.7,1.9l0,0l0,0l0,0l0,0c1,0,1.7-1,1.7-2.1v-7.5l0,0c0.1-0.2,0.2-0.3,0.4-0.3c0.2,0,0.4,0.2,0.4,0.5v26.1
	c0,1.1,1.1,1.9,2.4,1.9h0.3c1.3,0,2.4-0.9,2.4-1.9V187h1.5v14.9c0,1.1,1.1,1.9,2.4,1.9h0.3c1.3,0,2.4-0.9,2.4-1.9v-26.1
	c0-0.3,0.2-0.5,0.4-0.5c0.2,0,0.4,0.1,0.4,0.3v7.7l0,0c0.1,1,0.8,1.9,1.7,1.9l0,0l0,0l0,0l0,0c1,0,1.7-1,1.7-2.1v-12.3
	C374.6,170.5,374.6,170.2,374.5,169.9z"/>
<path class="st1" d="M428.5,167.3c3,0,5.4-2.1,5.4-4.7c0-2.6-2.4-4.7-5.4-4.7s-5.4,2.1-5.4,4.7S425.5,167.3,428.5,167.3z"/>
<path class="st1" d="M438.6,170c-0.3-0.9-1.1-1.7-2.2-1.9h-15.6c-0.7,0.1-1.3,0.5-1.7,1.1c-0.5,0.7-0.5,1.6-0.5,2.4l0,0v11.7l0,0
	c0.1,1,0.8,1.9,1.7,1.9l0,0l0,0l0,0l0,0c1,0,1.7-1,1.7-2.1v-7.5l0,0c0.1-0.2,0.2-0.3,0.4-0.3c0.2,0,0.4,0.2,0.4,0.5V202
	c0,1.1,1.1,1.9,2.4,1.9h0.3c1.3,0,2.4-0.9,2.4-1.9v-14.9h1.5V202c0,1.1,1.1,1.9,2.4,1.9h0.3c1.3,0,2.4-0.9,2.4-1.9v-26.1
	c0-0.3,0.2-0.5,0.4-0.5c0.2,0,0.4,0.1,0.4,0.3v7.7l0,0c0.1,1,0.8,1.9,1.7,1.9l0,0l0,0l0,0l0,0c1,0,1.7-1,1.7-2.1v-12.3
	C438.7,170.6,438.7,170.3,438.6,170z"/>
<path class="st1" d="M407,167.3c3,0,5.4-2.1,5.4-4.7c0-2.6-2.4-4.7-5.4-4.7s-5.4,2.1-5.4,4.7S404,167.3,407,167.3z"/>
<path class="st1" d="M397,183.4c0.1,1,0.8,1.9,1.7,1.9l0,0l0,0l0,0l0,0c1,0,1.7-1,1.7-2.1v-7.5l0,0c0.1-0.2,0.2-0.3,0.4-0.3
	c0.2,0,0.5,0.2,0.5,0.5V202c0,1.1,1.1,1.9,2.4,1.9h0.3c1.3,0,2.4-0.9,2.4-1.9v-14.9h1.5V202c0,1.1,1.1,1.9,2.4,1.9h0.3
	c1.3,0,2.4-0.9,2.4-1.9v-26.1c0-0.3,0.2-0.5,0.5-0.5c0.2,0,0.4,0.1,0.4,0.3v7.7l0,0c0.1,1,0.8,1.9,1.7,1.9l0,0l0,0l0,0l0,0
	c1,0,1.7-1,1.7-2.1v-12.3c0-0.3-0.1-0.6-0.2-0.9c-0.3-0.9-1.1-1.7-2.2-1.9h-15.6c-0.7,0.1-1.3,0.5-1.7,1.1"/>
<g>
	<path class="st1" d="M257.8,213.7c3,0,5.4-2.1,5.4-4.7s-2.4-4.7-5.4-4.7s-5.4,2.1-5.4,4.7C252.4,211.6,254.8,213.7,257.8,213.7z"/>
	<path class="st1" d="M267.8,216.4c-0.3-0.9-1.1-1.7-2.2-1.9H250c-0.7,0.1-1.3,0.5-1.7,1.1c-0.5,0.7-0.5,1.6-0.5,2.4l0,0v11.7l0,0
		c0.1,1,0.8,1.9,1.7,1.9l0,0l0,0l0,0l0,0c0.9,0,1.7-1,1.7-2.1V222l0,0c0.1-0.2,0.2-0.3,0.4-0.3c0.2,0,0.4,0.2,0.4,0.5v26.1
		c0,1.1,1.1,1.9,2.4,1.9h0.3c1.3,0,2.4-0.9,2.4-1.9v-14.9h1.5v14.9c0,1.1,1.1,1.9,2.4,1.9h0.3c1.3,0,2.4-0.9,2.4-1.9v-26.1
		c0-0.3,0.2-0.5,0.4-0.5c0.2,0,0.4,0.1,0.4,0.3v7.7l0,0c0.1,1,0.8,1.9,1.7,1.9l0,0l0,0l0,0l0,0c1,0,1.7-1,1.7-2.1v-12.3
		C268,217,268,216.7,267.8,216.4z"/>
</g>
<g>
	<path class="st1" d="M236.2,213.7c3,0,5.4-2.1,5.4-4.7s-2.4-4.7-5.4-4.7s-5.4,2.1-5.4,4.7C230.8,211.6,233.3,213.7,236.2,213.7z"/>
	<path class="st1" d="M246.3,216.4c-0.3-0.9-1.1-1.7-2.2-1.9h-15.6c-0.7,0.1-1.3,0.5-1.7,1.1c-0.5,0.7-0.6,1.6-0.6,2.4l0,0v11.7l0,0
		c0.1,1,0.8,1.9,1.7,1.9l0,0l0,0l0,0l0,0c0.9,0,1.7-1,1.7-2.1V222l0,0c0.1-0.2,0.2-0.3,0.4-0.3s0.5,0.2,0.5,0.5v26.1
		c0,1.1,1.1,1.9,2.4,1.9h0.3c1.3,0,2.4-0.9,2.4-1.9v-14.9h1.5v14.9c0,1.1,1.1,1.9,2.4,1.9h0.3c1.3,0,2.4-0.9,2.4-1.9v-26.1
		c0-0.3,0.2-0.5,0.4-0.5c0.2,0,0.4,0.1,0.4,0.3v7.7l0,0c0.1,1,0.8,1.9,1.7,1.9l0,0l0,0l0,0l0,0c1,0,1.7-1,1.7-2.1v-12.3
		C246.5,217,246.4,216.7,246.3,216.4z"/>
</g>
<g>
	<path class="st1" d="M300.5,213.7c3,0,5.4-2.1,5.4-4.7s-2.4-4.7-5.4-4.7s-5.4,2.1-5.4,4.7C295.1,211.6,297.5,213.7,300.5,213.7z"/>
	<path class="st1" d="M310.6,216.4c-0.3-0.9-1.1-1.7-2.2-1.9h-15.6c-0.7,0.1-1.3,0.5-1.7,1.1c-0.5,0.7-0.5,1.6-0.5,2.4l0,0v11.7l0,0
		c0.1,1,0.8,1.9,1.7,1.9l0,0l0,0l0,0l0,0c0.9,0,1.7-1,1.7-2.1V222l0,0c0.1-0.2,0.2-0.3,0.4-0.3c0.2,0,0.4,0.2,0.4,0.5v26.1
		c0,1.1,1.1,1.9,2.4,1.9h0.3c1.3,0,2.4-0.9,2.4-1.9v-14.9h1.5v14.9c0,1.1,1.1,1.9,2.4,1.9h0.3c1.3,0,2.4-0.9,2.4-1.9v-26.1
		c0-0.3,0.2-0.5,0.5-0.5c0.2,0,0.4,0.1,0.4,0.3v7.7l0,0c0.1,1,0.8,1.9,1.7,1.9l0,0l0,0l0,0l0,0c1,0,1.7-1,1.7-2.1v-12.3
		C310.8,217,310.7,216.7,310.6,216.4z"/>
</g>
<g>
	<path class="st1" d="M279,213.7c3,0,5.4-2.1,5.4-4.7s-2.4-4.7-5.4-4.7s-5.4,2.1-5.4,4.7C273.6,211.6,276,213.7,279,213.7z"/>
	<path class="st1" d="M289.1,216.4c-0.3-0.9-1.1-1.7-2.2-1.9h-15.6c-0.7,0.1-1.3,0.5-1.7,1.1c-0.5,0.7-0.5,1.6-0.5,2.4l0,0v11.7l0,0
		c0.1,1,0.8,1.9,1.7,1.9l0,0l0,0l0,0l0,0c1,0,1.7-1,1.7-2.1V222l0,0c0.1-0.2,0.2-0.3,0.4-0.3c0.2,0,0.4,0.2,0.4,0.5v26.1
		c0,1.1,1.1,1.9,2.4,1.9h0.3c1.3,0,2.4-0.9,2.4-1.9v-14.9h1.5v14.9c0,1.1,1.1,1.9,2.4,1.9h0.3c1.3,0,2.4-0.9,2.4-1.9v-26.1
		c0-0.3,0.2-0.5,0.4-0.5c0.2,0,0.4,0.1,0.4,0.3v7.7l0,0c0.1,1,0.8,1.9,1.7,1.9l0,0l0,0l0,0l0,0c1,0,1.7-1,1.7-2.1v-12.3
		C289.2,217,289.2,216.7,289.1,216.4z"/>
</g>
<path class="st1" d="M343.1,214c3,0,5.4-2.1,5.4-4.7c0-2.6-2.4-4.7-5.4-4.7s-5.4,2.1-5.4,4.7C337.8,211.9,340.2,214,343.1,214z"/>
<path class="st1" d="M353.2,216.7c-0.3-0.9-1.1-1.7-2.2-1.9h-15.6c-0.7,0.1-1.3,0.5-1.7,1.1c-0.5,0.7-0.5,1.6-0.5,2.4l0,0V230l0,0
	c0.1,1,0.8,1.9,1.7,1.9l0,0l0,0l0,0l0,0c1,0,1.7-1,1.7-2.1v-7.5l0,0c0.1-0.2,0.2-0.3,0.4-0.3c0.2,0,0.4,0.2,0.4,0.5v26.1
	c0,1.1,1.1,1.9,2.4,1.9h0.3c1.3,0,2.4-0.9,2.4-1.9v-14.9h1.5v14.9c0,1.1,1.1,1.9,2.4,1.9h0.3c1.3,0,2.4-0.9,2.4-1.9v-26.1
	c0-0.3,0.2-0.5,0.4-0.5c0.2,0,0.4,0.1,0.4,0.3v7.7l0,0c0.1,1,0.8,1.9,1.7,1.9l0,0l0,0l0,0l0,0c1,0,1.7-1,1.7-2.1v-12.3
	C353.4,217.3,353.3,217,353.2,216.7z"/>
<path class="st1" d="M321.6,214c3,0,5.4-2.1,5.4-4.7c0-2.6-2.4-4.7-5.4-4.7s-5.4,2.1-5.4,4.7S318.7,214,321.6,214z"/>
<path class="st1" d="M331.7,216.7c-0.3-0.9-1.1-1.7-2.2-1.9h-15.6c-0.7,0.1-1.3,0.5-1.7,1.1c-0.5,0.7-0.5,1.6-0.5,2.4l0,0V230l0,0
	c0.1,1,0.8,1.9,1.7,1.9l0,0l0,0l0,0l0,0c1,0,1.7-1,1.7-2.1v-7.5l0,0c0.1-0.2,0.2-0.3,0.4-0.3c0.2,0,0.4,0.2,0.4,0.5v26.1
	c0,1.1,1.1,1.9,2.4,1.9h0.3c1.3,0,2.4-0.9,2.4-1.9v-14.9h1.5v14.9c0,1.1,1.1,1.9,2.4,1.9h0.3c1.3,0,2.4-0.9,2.4-1.9v-26.1
	c0-0.3,0.2-0.5,0.4-0.5c0.2,0,0.4,0.1,0.4,0.3v7.7l0,0c0.1,1,0.8,1.9,1.7,1.9l0,0l0,0l0,0l0,0c1,0,1.7-1,1.7-2.1v-12.3
	C331.9,217.3,331.8,217,331.7,216.7z"/>
<path class="st1" d="M385.9,214c3,0,5.4-2.1,5.4-4.7c0-2.6-2.4-4.7-5.4-4.7s-5.4,2.1-5.4,4.7S382.9,214,385.9,214z"/>
<path class="st1" d="M396,216.7c-0.3-0.9-1.1-1.7-2.2-1.9h-15.6c-0.7,0.1-1.3,0.5-1.7,1.1c-0.5,0.7-0.5,1.6-0.5,2.4l0,0V230l0,0
	c0.1,1,0.8,1.9,1.7,1.9l0,0l0,0l0,0l0,0c1,0,1.7-1,1.7-2.1v-7.5l0,0c0.1-0.2,0.2-0.3,0.4-0.3c0.2,0,0.4,0.2,0.4,0.5v26.1
	c0,1.1,1.1,1.9,2.4,1.9h0.3c1.3,0,2.4-0.9,2.4-1.9v-14.9h1.5v14.9c0,1.1,1.1,1.9,2.4,1.9h0.3c1.3,0,2.4-0.9,2.4-1.9v-26.1
	c0-0.3,0.2-0.5,0.4-0.5c0.2,0,0.4,0.1,0.4,0.3v7.7l0,0c0.1,1,0.8,1.9,1.7,1.9l0,0l0,0l0,0l0,0c1,0,1.7-1,1.7-2.1v-12.3
	C396.2,217.3,396.1,217,396,216.7z"/>
<path class="st1" d="M364.4,214c3,0,5.4-2.1,5.4-4.7c0-2.6-2.4-4.7-5.4-4.7s-5.4,2.1-5.4,4.7S361.4,214,364.4,214z"/>
<path class="st1" d="M374.5,216.7c-0.3-0.9-1.1-1.7-2.2-1.9h-15.6c-0.7,0.1-1.3,0.5-1.7,1.1c-0.5,0.7-0.5,1.6-0.5,2.4l0,0V230l0,0
	c0.1,1,0.8,1.9,1.7,1.9l0,0l0,0l0,0l0,0c1,0,1.7-1,1.7-2.1v-7.5l0,0c0.1-0.2,0.2-0.3,0.4-0.3c0.2,0,0.4,0.2,0.4,0.5v26.1
	c0,1.1,1.1,1.9,2.4,1.9h0.3c1.3,0,2.4-0.9,2.4-1.9v-14.9h1.5v14.9c0,1.1,1.1,1.9,2.4,1.9h0.3c1.3,0,2.4-0.9,2.4-1.9v-26.1
	c0-0.3,0.2-0.5,0.4-0.5c0.2,0,0.4,0.1,0.4,0.3v7.7l0,0c0.1,1,0.8,1.9,1.7,1.9l0,0l0,0l0,0l0,0c1,0,1.7-1,1.7-2.1v-12.3
	C374.6,217.3,374.6,217,374.5,216.7z"/>
<path class="st1" d="M428.5,214.1c3,0,5.4-2.1,5.4-4.7s-2.4-4.7-5.4-4.7s-5.4,2.1-5.4,4.7S425.5,214.1,428.5,214.1z"/>
<path class="st1" d="M438.6,216.8c-0.3-0.9-1.1-1.7-2.2-1.9h-15.6c-0.7,0.1-1.3,0.5-1.7,1.1c-0.5,0.7-0.5,1.6-0.5,2.4l0,0v11.7l0,0
	c0.1,1,0.8,1.9,1.7,1.9l0,0l0,0l0,0l0,0c1,0,1.7-1,1.7-2.1v-7.5l0,0c0.1-0.2,0.2-0.3,0.4-0.3c0.2,0,0.4,0.2,0.4,0.5v26.1
	c0,1.1,1.1,1.9,2.4,1.9h0.3c1.3,0,2.4-0.9,2.4-1.9v-14.9h1.5v14.9c0,1.1,1.1,1.9,2.4,1.9h0.3c1.3,0,2.4-0.9,2.4-1.9v-26.1
	c0-0.3,0.2-0.5,0.4-0.5c0.2,0,0.4,0.1,0.4,0.3v7.7l0,0c0.1,1,0.8,1.9,1.7,1.9l0,0l0,0l0,0l0,0c1,0,1.7-1,1.7-2.1v-12.3
	C438.7,217.4,438.7,217.1,438.6,216.8z"/>
<path class="st1" d="M407,214.1c3,0,5.4-2.1,5.4-4.7s-2.4-4.7-5.4-4.7s-5.4,2.1-5.4,4.7S404,214.1,407,214.1z"/>
<path class="st1" d="M397,230.2c0.1,1,0.8,1.9,1.7,1.9l0,0l0,0l0,0l0,0c1,0,1.7-1,1.7-2.1v-7.5l0,0c0.1-0.2,0.2-0.3,0.4-0.3
	c0.2,0,0.5,0.2,0.5,0.5v26.1c0,1.1,1.1,1.9,2.4,1.9h0.3c1.3,0,2.4-0.9,2.4-1.9v-14.9h1.5v14.9c0,1.1,1.1,1.9,2.4,1.9h0.3
	c1.3,0,2.4-0.9,2.4-1.9v-26.1c0-0.3,0.2-0.5,0.5-0.5c0.2,0,0.4,0.1,0.4,0.3v7.7l0,0c0.1,1,0.8,1.9,1.7,1.9l0,0l0,0l0,0l0,0
	c1,0,1.7-1,1.7-2.1v-12.3c0-0.3-0.1-0.6-0.2-0.9c-0.3-0.9-1.1-1.7-2.2-1.9h-15.6c-0.7,0.1-1.3,0.5-1.7,1.1"/>
<g>
	<path class="st1" d="M43.9,260.3c3,0,5.4-2.1,5.4-4.7s-2.4-4.7-5.4-4.7s-5.4,2.1-5.4,4.7C38.6,258.2,41,260.3,43.9,260.3z"/>
	<path class="st1" d="M54,263c-0.3-0.9-1.1-1.7-2.2-1.9H36.2c-0.7,0.1-1.3,0.5-1.7,1.1c-0.5,0.7-0.5,1.6-0.5,2.4l0,0v11.7l0,0
		c0.1,1,0.8,1.9,1.7,1.9l0,0l0,0l0,0l0,0c1,0,1.7-1,1.7-2.1v-7.5l0,0c0.1-0.2,0.2-0.3,0.4-0.3s0.5,0.2,0.5,0.5V295
		c0,1.1,1.1,1.9,2.4,1.9H41c1.3,0,2.4-0.9,2.4-1.9v-14.9h1.5V295c0,1.1,1.1,1.9,2.4,1.9h0.3c1.3,0,2.4-0.9,2.4-1.9v-26.1
		c0-0.3,0.2-0.5,0.5-0.5c0.2,0,0.4,0.1,0.4,0.3v7.7l0,0c0.1,1,0.8,1.9,1.7,1.9l0,0l0,0l0,0l0,0c1,0,1.7-1,1.7-2.1v-12.3
		C54.2,263.6,54.1,263.3,54,263z"/>
</g>
<g>
	<path class="st1" d="M22.4,260.3c3,0,5.4-2.1,5.4-4.7s-2.4-4.7-5.4-4.7S17,253,17,255.6C17,258.2,19.4,260.3,22.4,260.3z"/>
	<path class="st1" d="M32.5,263c-0.3-0.9-1.1-1.7-2.2-1.9H14.7c-0.7,0.1-1.3,0.5-1.7,1.1c-0.5,0.7-0.5,1.6-0.5,2.4l0,0v11.7l0,0
		c0.1,1,0.8,1.9,1.7,1.9l0,0l0,0l0,0l0,0c1,0,1.7-1,1.7-2.1v-7.5l0,0c0.1-0.2,0.2-0.3,0.4-0.3s0.5,0.2,0.5,0.5V295
		c0,1.1,1.1,1.9,2.4,1.9h0.3c1.3,0,2.4-0.9,2.4-1.9v-14.9h1.5V295c0,1.1,1.1,1.9,2.4,1.9h0.3c1.3,0,2.4-0.9,2.4-1.9v-26.1
		c0-0.3,0.2-0.5,0.5-0.5c0.2,0,0.4,0.1,0.4,0.3v7.7l0,0c0.1,1,0.8,1.9,1.7,1.9l0,0l0,0l0,0l0,0c1,0,1.7-1,1.7-2.1v-12.3
		C32.7,263.6,32.6,263.3,32.5,263z"/>
</g>
<g>
	<path class="st1" d="M86.7,260.3c3,0,5.4-2.1,5.4-4.7s-2.4-4.7-5.4-4.7s-5.4,2.1-5.4,4.7C81.3,258.2,83.7,260.3,86.7,260.3z"/>
	<path class="st1" d="M96.8,263c-0.3-0.9-1.1-1.7-2.2-1.9H79c-0.7,0.1-1.3,0.5-1.7,1.1c-0.5,0.7-0.6,1.6-0.6,2.4l0,0v11.7l0,0
		c0.1,1,0.8,1.9,1.7,1.9l0,0l0,0l0,0l0,0c1,0,1.7-1,1.7-2.1v-7.5l0,0c0.1-0.2,0.2-0.3,0.4-0.3c0.2,0,0.5,0.2,0.5,0.5V295
		c0,1.1,1.1,1.9,2.4,1.9h0.3c1.3,0,2.4-0.9,2.4-1.9v-14.9h1.5V295c0,1.1,1.1,1.9,2.4,1.9h0.3c1.3,0,2.4-0.9,2.4-1.9v-26.1
		c0-0.3,0.2-0.5,0.5-0.5c0.2,0,0.4,0.1,0.4,0.3v7.7l0,0c0.1,1,0.8,1.9,1.7,1.9l0,0l0,0l0,0l0,0c1,0,1.7-1,1.7-2.1v-12.3
		C96.9,263.6,96.9,263.3,96.8,263z"/>
</g>
<g>
	<path class="st1" d="M65.2,260.3c3,0,5.4-2.1,5.4-4.7s-2.4-4.7-5.4-4.7s-5.4,2.1-5.4,4.7C59.8,258.2,62.2,260.3,65.2,260.3z"/>
	<path class="st1" d="M75.3,263c-0.3-0.9-1.1-1.7-2.2-1.9H57.5c-0.7,0.1-1.3,0.5-1.7,1.1c-0.5,0.7-0.5,1.6-0.5,2.4l0,0v11.7l0,0
		c0.1,1,0.8,1.9,1.7,1.9l0,0l0,0l0,0l0,0c0.9,0,1.7-1,1.7-2.1v-7.5l0,0c0.1-0.2,0.2-0.3,0.4-0.3c0.2,0,0.4,0.2,0.4,0.5V295
		c0,1.1,1.1,1.9,2.4,1.9h0.3c1.3,0,2.4-0.9,2.4-1.9v-14.9h1.5V295c0,1.1,1.1,1.9,2.4,1.9h0.3c1.3,0,2.4-0.9,2.4-1.9v-26.1
		c0-0.3,0.2-0.5,0.4-0.5c0.2,0,0.4,0.1,0.4,0.3v7.7l0,0c0.1,1,0.8,1.9,1.7,1.9l0,0l0,0l0,0l0,0c0.9,0,1.7-1,1.7-2.1v-12.3
		C75.4,263.6,75.4,263.3,75.3,263z"/>
</g>
<path class="st1" d="M129.3,260.6c3,0,5.4-2.1,5.4-4.7s-2.4-4.7-5.4-4.7s-5.4,2.1-5.4,4.7C123.9,258.5,126.4,260.6,129.3,260.6z"/>
<path class="st1" d="M139.4,263.3c-0.3-0.9-1.1-1.7-2.2-1.9h-15.6c-0.7,0.1-1.3,0.5-1.7,1.1c-0.5,0.7-0.6,1.6-0.6,2.4l0,0v11.7l0,0
	c0.1,1,0.8,1.9,1.7,1.9l0,0l0,0l0,0l0,0c0.9,0,1.7-1,1.7-2.1v-7.5l0,0c0.1-0.2,0.2-0.3,0.4-0.3s0.4,0.2,0.4,0.5v26.1
	c0,1.1,1.1,1.9,2.4,1.9h0.3c1.3,0,2.4-0.9,2.4-1.9v-14.9h1.5v14.9c0,1.1,1.1,1.9,2.4,1.9h0.3c1.3,0,2.4-0.9,2.4-1.9v-26.1
	c0-0.3,0.2-0.5,0.4-0.5s0.4,0.1,0.4,0.3v7.7l0,0c0.1,1,0.8,1.9,1.7,1.9l0,0l0,0l0,0l0,0c0.9,0,1.7-1,1.7-2.1v-12.3
	C139.6,263.9,139.5,263.6,139.4,263.3z"/>
<path class="st1" d="M107.8,260.6c3,0,5.4-2.1,5.4-4.7s-2.4-4.7-5.4-4.7s-5.4,2.1-5.4,4.7S104.8,260.6,107.8,260.6z"/>
<path class="st1" d="M117.9,263.3c-0.3-0.9-1.1-1.7-2.2-1.9h-15.6c-0.7,0.1-1.3,0.5-1.7,1.1c-0.5,0.7-0.5,1.6-0.5,2.4l0,0v11.7l0,0
	c0.1,1,0.8,1.9,1.7,1.9l0,0l0,0l0,0l0,0c0.9,0,1.7-1,1.7-2.1v-7.5l0,0c0.1-0.2,0.2-0.3,0.4-0.3c0.2,0,0.4,0.2,0.4,0.5v26.1
	c0,1.1,1.1,1.9,2.4,1.9h0.3c1.3,0,2.4-0.9,2.4-1.9v-14.9h1.5v14.9c0,1.1,1.1,1.9,2.4,1.9h0.3c1.3,0,2.4-0.9,2.4-1.9v-26.1
	c0-0.3,0.2-0.5,0.5-0.5c0.2,0,0.4,0.1,0.4,0.3v7.7l0,0c0.1,1,0.8,1.9,1.7,1.9l0,0l0,0l0,0l0,0c1,0,1.7-1,1.7-2.1v-12.3
	C118.1,263.9,118,263.6,117.9,263.3z"/>
<path class="st1" d="M172.1,260.6c3,0,5.4-2.1,5.4-4.7s-2.4-4.7-5.4-4.7s-5.4,2.1-5.4,4.7C166.7,258.5,169.1,260.6,172.1,260.6z"/>
<path class="st1" d="M182.2,263.3c-0.3-0.9-1.1-1.7-2.2-1.9h-15.6c-0.7,0.1-1.3,0.5-1.7,1.1c-0.5,0.7-0.6,1.6-0.6,2.4l0,0v11.7l0,0
	c0.1,1,0.8,1.9,1.7,1.9l0,0l0,0l0,0l0,0c0.9,0,1.7-1,1.7-2.1v-7.5l0,0c0.1-0.2,0.2-0.3,0.4-0.3s0.4,0.2,0.4,0.5v26.1
	c0,1.1,1.1,1.9,2.4,1.9h0.3c1.3,0,2.4-0.9,2.4-1.9v-14.9h1.5v14.9c0,1.1,1.1,1.9,2.4,1.9h0.3c1.3,0,2.4-0.9,2.4-1.9v-26.1
	c0-0.3,0.2-0.5,0.4-0.5s0.4,0.1,0.4,0.3v7.7l0,0c0.1,1,0.8,1.9,1.7,1.9l0,0l0,0l0,0l0,0c0.9,0,1.7-1,1.7-2.1v-12.3
	C182.3,263.9,182.3,263.6,182.2,263.3z"/>
<path class="st1" d="M150.6,260.6c3,0,5.4-2.1,5.4-4.7s-2.4-4.7-5.4-4.7s-5.4,2.1-5.4,4.7C145.2,258.5,147.6,260.6,150.6,260.6z"/>
<path class="st1" d="M160.7,263.3c-0.3-0.9-1.1-1.7-2.2-1.9h-15.6c-0.7,0.1-1.3,0.5-1.7,1.1c-0.5,0.7-0.5,1.6-0.5,2.4l0,0v11.7l0,0
	c0.1,1,0.8,1.9,1.7,1.9l0,0l0,0l0,0l0,0c0.9,0,1.7-1,1.7-2.1v-7.5l0,0c0.1-0.2,0.2-0.3,0.4-0.3s0.5,0.2,0.5,0.5v26.1
	c0,1.1,1.1,1.9,2.4,1.9h0.3c1.3,0,2.4-0.9,2.4-1.9v-14.9h1.5v14.9c0,1.1,1.1,1.9,2.4,1.9h0.3c1.3,0,2.4-0.9,2.4-1.9v-26.1
	c0-0.3,0.2-0.5,0.4-0.5s0.4,0.1,0.4,0.3v7.7l0,0c0.1,1,0.8,1.9,1.7,1.9l0,0l0,0l0,0l0,0c0.9,0,1.7-1,1.7-2.1v-12.3
	C160.8,263.9,160.8,263.6,160.7,263.3z"/>
<path class="st1" d="M214.7,260.7c3,0,5.4-2.1,5.4-4.7s-2.4-4.7-5.4-4.7s-5.4,2.1-5.4,4.7S211.7,260.7,214.7,260.7z"/>
<path class="st1" d="M224.7,263.4c-0.3-0.9-1.1-1.7-2.2-1.9h-15.6c-0.7,0.1-1.3,0.5-1.7,1.1c-0.5,0.7-0.6,1.6-0.6,2.4l0,0v11.7l0,0
	c0.1,1,0.8,1.9,1.7,1.9l0,0l0,0l0,0l0,0c0.9,0,1.7-1,1.7-2.1V269l0,0c0.1-0.2,0.2-0.3,0.4-0.3s0.5,0.2,0.5,0.5v26.1
	c0,1.1,1.1,1.9,2.4,1.9h0.3c1.3,0,2.4-0.9,2.4-1.9v-14.9h1.5v14.9c0,1.1,1.1,1.9,2.4,1.9h0.3c1.3,0,2.4-0.9,2.4-1.9v-26.1
	c0-0.3,0.2-0.5,0.5-0.5c0.2,0,0.4,0.1,0.4,0.3v7.7l0,0c0.1,1,0.8,1.9,1.7,1.9l0,0l0,0l0,0l0,0c1,0,1.7-1,1.7-2.1v-12.3
	C224.9,264,224.9,263.7,224.7,263.4z"/>
<path class="st1" d="M193.1,260.7c3,0,5.4-2.1,5.4-4.7s-2.4-4.7-5.4-4.7s-5.4,2.1-5.4,4.7C187.7,258.6,190.2,260.7,193.1,260.7z"/>
<path class="st1" d="M183.2,276.8c0.1,1,0.8,1.9,1.7,1.9l0,0l0,0l0,0l0,0c0.9,0,1.7-1,1.7-2.1v-7.5l0,0c0.1-0.2,0.2-0.3,0.4-0.3
	s0.4,0.2,0.4,0.5v26.1c0,1.1,1.1,1.9,2.4,1.9h0.3c1.3,0,2.4-0.9,2.4-1.9v-14.9h1.5v14.9c0,1.1,1.1,1.9,2.4,1.9h0.3
	c1.3,0,2.4-0.9,2.4-1.9v-26.1c0-0.3,0.2-0.5,0.4-0.5s0.4,0.1,0.4,0.3v7.7l0,0c0.1,1,0.8,1.9,1.7,1.9l0,0l0,0l0,0l0,0
	c0.9,0,1.7-1,1.7-2.1v-12.3c0-0.3-0.1-0.6-0.2-0.9c-0.3-0.9-1.1-1.7-2.2-1.9h-15.6c-0.7,0.1-1.3,0.5-1.7,1.1"/>
<g>
	<path class="st1" d="M257.2,260.4c3,0,5.4-2.1,5.4-4.7s-2.4-4.7-5.4-4.7s-5.4,2.1-5.4,4.7C251.9,258.3,254.3,260.4,257.2,260.4z"/>
	<path class="st1" d="M267.3,263.1c-0.3-0.9-1.1-1.7-2.2-1.9h-15.6c-0.7,0.1-1.3,0.5-1.7,1.1c-0.5,0.7-0.6,1.6-0.6,2.4l0,0v11.7l0,0
		c0.1,1,0.8,1.9,1.7,1.9l0,0l0,0l0,0l0,0c1,0,1.7-1,1.7-2.1v-7.5l0,0c0.1-0.2,0.2-0.3,0.4-0.3c0.2,0,0.5,0.2,0.5,0.5V295
		c0,1.1,1.1,1.9,2.4,1.9h0.3c1.3,0,2.4-0.9,2.4-1.9v-14.9h1.5V295c0,1.1,1.1,1.9,2.4,1.9h0.3c1.3,0,2.4-0.9,2.4-1.9v-26.1
		c0-0.3,0.2-0.5,0.5-0.5c0.2,0,0.4,0.1,0.4,0.3v7.7l0,0c0.1,1,0.8,1.9,1.7,1.9l0,0l0,0l0,0l0,0c0.9,0,1.7-1,1.7-2.1v-12.3
		C267.5,263.7,267.4,263.4,267.3,263.1z"/>
</g>
<g>
	<path class="st1" d="M235.7,260.4c3,0,5.4-2.1,5.4-4.7s-2.4-4.7-5.4-4.7s-5.4,2.1-5.4,4.7C230.3,258.3,232.8,260.4,235.7,260.4z"/>
	<path class="st1" d="M245.8,263.1c-0.3-0.9-1.1-1.7-2.2-1.9H228c-0.7,0.1-1.3,0.5-1.7,1.1c-0.5,0.7-0.6,1.6-0.6,2.4l0,0v11.7l0,0
		c0.1,1,0.8,1.9,1.7,1.9l0,0l0,0l0,0l0,0c0.9,0,1.7-1,1.7-2.1v-7.5l0,0c0.1-0.2,0.2-0.3,0.4-0.3s0.4,0.2,0.4,0.5V295
		c0,1.1,1.1,1.9,2.4,1.9h0.3c1.3,0,2.4-0.9,2.4-1.9v-14.9h1.5V295c0,1.1,1.1,1.9,2.4,1.9h0.3c1.3,0,2.4-0.9,2.4-1.9v-26.1
		c0-0.3,0.2-0.5,0.5-0.5c0.2,0,0.4,0.1,0.4,0.3v7.7l0,0c0.1,1,0.8,1.9,1.7,1.9l0,0l0,0l0,0l0,0c0.9,0,1.7-1,1.7-2.1v-12.3
		C246,263.7,245.9,263.4,245.8,263.1z"/>
</g>
<g>
	<path class="st1" d="M300,260.4c3,0,5.4-2.1,5.4-4.7S303,251,300,251s-5.4,2.1-5.4,4.7S297,260.4,300,260.4z"/>
	<path class="st1" d="M310.1,263.1c-0.3-0.9-1.1-1.7-2.2-1.9h-15.6c-0.7,0.1-1.3,0.5-1.7,1.1c-0.5,0.7-0.6,1.6-0.6,2.4l0,0v11.7l0,0
		c0.1,1,0.8,1.9,1.7,1.9l0,0l0,0l0,0l0,0c1,0,1.7-1,1.7-2.1v-7.5l0,0c0.1-0.2,0.2-0.3,0.4-0.3c0.2,0,0.5,0.2,0.5,0.5V295
		c0,1.1,1.1,1.9,2.4,1.9h0.3c1.3,0,2.4-0.9,2.4-1.9v-14.9h1.5V295c0,1.1,1.1,1.9,2.4,1.9h0.3c1.3,0,2.4-0.9,2.4-1.9v-26.1
		c0-0.3,0.2-0.5,0.5-0.5c0.2,0,0.4,0.1,0.4,0.3v7.7l0,0c0.1,1,0.8,1.9,1.7,1.9l0,0l0,0l0,0l0,0c1,0,1.7-1,1.7-2.1v-12.3
		C310.3,263.7,310.2,263.4,310.1,263.1z"/>
</g>
<g>
	<path class="st1" d="M278.5,260.4c3,0,5.4-2.1,5.4-4.7s-2.4-4.7-5.4-4.7s-5.4,2.1-5.4,4.7S275.5,260.4,278.5,260.4z"/>
	<path class="st1" d="M288.6,263.1c-0.3-0.9-1.1-1.7-2.2-1.9h-15.6c-0.7,0.1-1.3,0.5-1.7,1.1c-0.5,0.7-0.6,1.6-0.6,2.4l0,0v11.7l0,0
		c0.1,1,0.8,1.9,1.7,1.9l0,0l0,0l0,0l0,0c1,0,1.7-1,1.7-2.1v-7.5l0,0c0.1-0.2,0.2-0.3,0.4-0.3c0.2,0,0.5,0.2,0.5,0.5V295
		c0,1.1,1.1,1.9,2.4,1.9h0.3c1.3,0,2.4-0.9,2.4-1.9v-14.9h1.5V295c0,1.1,1.1,1.9,2.4,1.9h0.3c1.3,0,2.4-0.9,2.4-1.9v-26.1
		c0-0.3,0.2-0.5,0.5-0.5c0.2,0,0.4,0.1,0.4,0.3v7.7l0,0c0.1,1,0.8,1.9,1.7,1.9l0,0l0,0l0,0l0,0c0.9,0,1.7-1,1.7-2.1v-12.3
		C288.7,263.7,288.7,263.4,288.6,263.1z"/>
</g>
<path class="st1" d="M342.6,260.7c3,0,5.4-2.1,5.4-4.7s-2.4-4.7-5.4-4.7s-5.4,2.1-5.4,4.7C337.3,258.6,339.7,260.7,342.6,260.7z"/>
<path class="st1" d="M352.7,263.4c-0.3-0.9-1.1-1.7-2.2-1.9h-15.6c-0.7,0.1-1.3,0.5-1.7,1.1c-0.5,0.7-0.6,1.6-0.6,2.4l0,0v11.7l0,0
	c0.1,1,0.8,1.9,1.7,1.9l0,0l0,0l0,0l0,0c0.9,0,1.7-1,1.7-2.1V269l0,0c0.1-0.2,0.2-0.3,0.4-0.3c0.2,0,0.5,0.2,0.5,0.5v26.1
	c0,1.1,1.1,1.9,2.4,1.9h0.3c1.3,0,2.4-0.9,2.4-1.9v-14.9h1.5v14.9c0,1.1,1.1,1.9,2.4,1.9h0.3c1.3,0,2.4-0.9,2.4-1.9v-26.1
	c0-0.3,0.2-0.5,0.5-0.5c0.2,0,0.4,0.1,0.4,0.3v7.7l0,0c0.1,1,0.8,1.9,1.7,1.9l0,0l0,0l0,0l0,0c0.9,0,1.7-1,1.7-2.1v-12.3
	C352.9,264,352.8,263.7,352.7,263.4z"/>
<path class="st1" d="M321.1,260.7c3,0,5.4-2.1,5.4-4.7s-2.4-4.7-5.4-4.7s-5.4,2.1-5.4,4.7S318.1,260.7,321.1,260.7z"/>
<path class="st1" d="M331.2,263.4c-0.3-0.9-1.1-1.7-2.2-1.9h-15.6c-0.7,0.1-1.3,0.5-1.7,1.1c-0.5,0.7-0.5,1.6-0.5,2.4l0,0v11.7l0,0
	c0.1,1,0.8,1.9,1.7,1.9l0,0l0,0l0,0l0,0c0.9,0,1.7-1,1.7-2.1V269l0,0c0.1-0.2,0.2-0.3,0.4-0.3c0.2,0,0.5,0.2,0.5,0.5v26.1
	c0,1.1,1.1,1.9,2.4,1.9h0.3c1.3,0,2.4-0.9,2.4-1.9v-14.9h1.5v14.9c0,1.1,1.1,1.9,2.4,1.9h0.3c1.3,0,2.4-0.9,2.4-1.9v-26.1
	c0-0.3,0.2-0.5,0.5-0.5c0.2,0,0.4,0.1,0.4,0.3v7.7l0,0c0.1,1,0.8,1.9,1.7,1.9l0,0l0,0l0,0l0,0c0.9,0,1.7-1,1.7-2.1v-12.3
	C331.4,264,331.3,263.7,331.2,263.4z"/>
<path class="st1" d="M385.4,260.7c3,0,5.4-2.1,5.4-4.7s-2.4-4.7-5.4-4.7s-5.4,2.1-5.4,4.7S382.4,260.7,385.4,260.7z"/>
<path class="st1" d="M395.5,263.4c-0.3-0.9-1.1-1.7-2.2-1.9h-15.6c-0.7,0.1-1.3,0.5-1.7,1.1c-0.5,0.7-0.6,1.6-0.6,2.4l0,0v11.7l0,0
	c0.1,1,0.8,1.9,1.7,1.9l0,0l0,0l0,0l0,0c1,0,1.7-1,1.7-2.1V269l0,0c0.1-0.2,0.2-0.3,0.4-0.3c0.2,0,0.5,0.2,0.5,0.5v26.1
	c0,1.1,1.1,1.9,2.4,1.9h0.3c1.3,0,2.4-0.9,2.4-1.9v-14.9h1.5v14.9c0,1.1,1.1,1.9,2.4,1.9h0.3c1.3,0,2.4-0.9,2.4-1.9v-26.1
	c0-0.3,0.2-0.5,0.5-0.5c0.2,0,0.4,0.1,0.4,0.3v7.7l0,0c0.1,1,0.8,1.9,1.7,1.9l0,0l0,0l0,0l0,0c0.9,0,1.7-1,1.7-2.1v-12.3
	C395.6,264,395.6,263.7,395.5,263.4z"/>
<path class="st1" d="M363.9,260.7c3,0,5.4-2.1,5.4-4.7s-2.4-4.7-5.4-4.7s-5.4,2.1-5.4,4.7S360.9,260.7,363.9,260.7z"/>
<path class="st1" d="M374,263.4c-0.3-0.9-1.1-1.7-2.2-1.9h-15.6c-0.7,0.1-1.3,0.5-1.7,1.1c-0.5,0.7-0.6,1.6-0.6,2.4l0,0v11.7l0,0
	c0.1,1,0.8,1.9,1.7,1.9l0,0l0,0l0,0l0,0c0.9,0,1.7-1,1.7-2.1V269l0,0c0.1-0.2,0.2-0.3,0.4-0.3c0.2,0,0.5,0.2,0.5,0.5v26.1
	c0,1.1,1.1,1.9,2.4,1.9h0.3c1.3,0,2.4-0.9,2.4-1.9v-14.9h1.5v14.9c0,1.1,1.1,1.9,2.4,1.9h0.3c1.3,0,2.4-0.9,2.4-1.9v-26.1
	c0-0.3,0.2-0.5,0.5-0.5c0.2,0,0.4,0.1,0.4,0.3v7.7l0,0c0.1,1,0.8,1.9,1.7,1.9l0,0l0,0l0,0l0,0c0.9,0,1.7-1,1.7-2.1v-12.3
	C374.1,264,374.1,263.7,374,263.4z"/>
<path class="st1" d="M428,260.7c3,0,5.4-2.1,5.4-4.7s-2.4-4.7-5.4-4.7s-5.4,2.1-5.4,4.7S425,260.7,428,260.7z"/>
<path class="st1" d="M438.1,263.4c-0.3-0.9-1.1-1.7-2.2-1.9h-15.6c-0.7,0.1-1.3,0.5-1.7,1.1c-0.5,0.7-0.5,1.6-0.5,2.4l0,0v11.7l0,0
	c0.1,1,0.8,1.9,1.7,1.9l0,0l0,0l0,0l0,0c0.9,0,1.7-1,1.7-2.1V269l0,0c0.1-0.2,0.2-0.3,0.4-0.3c0.2,0,0.5,0.2,0.5,0.5v26.1
	c0,1.1,1.1,1.9,2.4,1.9h0.3c1.3,0,2.4-0.9,2.4-1.9v-14.9h1.5v14.9c0,1.1,1.1,1.9,2.4,1.9h0.3c1.3,0,2.4-0.9,2.4-1.9v-26.1
	c0-0.3,0.2-0.5,0.5-0.5c0.2,0,0.4,0.1,0.4,0.3v7.7l0,0c0.1,1,0.8,1.9,1.7,1.9l0,0l0,0l0,0l0,0c0.9,0,1.7-1,1.7-2.1v-12.3
	C438.2,264,438.2,263.7,438.1,263.4z"/>
<path class="st1" d="M406.4,260.7c3,0,5.4-2.1,5.4-4.7s-2.4-4.7-5.4-4.7s-5.4,2.1-5.4,4.7C401.1,258.6,403.5,260.7,406.4,260.7z"/>
<path class="st1" d="M396.5,276.9c0.1,1,0.8,1.9,1.7,1.9l0,0l0,0l0,0l0,0c0.9,0,1.7-1,1.7-2.1v-7.5l0,0c0.1-0.2,0.2-0.3,0.4-0.3
	c0.2,0,0.4,0.2,0.4,0.5v26.1c0,1.1,1.1,1.9,2.4,1.9h0.3c1.3,0,2.4-0.9,2.4-1.9v-14.9h1.5v14.9c0,1.1,1.1,1.9,2.4,1.9h0.3
	c1.3,0,2.4-0.9,2.4-1.9v-26.1c0-0.3,0.2-0.5,0.4-0.5c0.2,0,0.4,0.1,0.4,0.3v7.7l0,0c0.1,1,0.8,1.9,1.7,1.9l0,0l0,0l0,0l0,0
	c1,0,1.7-1,1.7-2.1v-12.3c0-0.3-0.1-0.6-0.2-0.9c-0.3-0.9-1.1-1.7-2.2-1.9h-15.6c-0.7,0.1-1.3,0.5-1.7,1.1"/>
<text transform="matrix(1 0 0 1 17.8963 34.0939)" class="st2 st3">Percent participating in self care</text>
</svg>
