<svg id="Layer_1" data-name="Layer 1" xmlns="http://www.w3.org/2000/svg" viewBox="0 0 1589.21 234.63"><defs><style>.cls-1{fill:#6563ff;}.cls-2{font-size:107px;fill:#333;font-family:HelveticaNeue-CondensedBlack, Helvetica Neue;font-weight:800;letter-spacing:0.01em;}.cls-3{letter-spacing:-0.03em;}.cls-4{letter-spacing:0.01em;}.cls-5{fill:#fff;letter-spacing:0.01em;}</style></defs><path class="cls-1" d="M1733.62,75.75a128.16,128.16,0,0,1-36.79,10.09A64.21,64.21,0,0,0,1725,50.4,127.91,127.91,0,0,1,1684.31,66a64.12,64.12,0,0,0-109.14,58.43,181.86,181.86,0,0,1-132-66.92A64.11,64.11,0,0,0,1463,143a63.76,63.76,0,0,1-29-8v.81a64.07,64.07,0,0,0,51.38,62.8,63.75,63.75,0,0,1-16.88,2.25,65.15,65.15,0,0,1-12.06-1.13,64.16,64.16,0,0,0,59.83,44.48,129,129,0,0,1-94.83,26.51c29.28,18.83,79.47,4.38,108.24,4.35,82.61.57,171.5-55.35,172.18-155.31q0-1.25,0-2.49,0-4.17-.19-8.28A130.5,130.5,0,0,0,1733.62,75.75Z" transform="translate(-144.41 -45.73)"/><text class="cls-2" transform="translate(0 152.16)">BIDEN<tspan class="cls-3" x="271.78" y="0"> </tspan><tspan class="cls-4" x="296.49" y="0">VS</tspan><tspan class="cls-3" x="411.3" y="0"> </tspan><tspan class="cls-4" x="436.02" y="0">TRUMP</tspan><tspan class="cls-3" x="749.21" y="0">: </tspan><tspan class="cls-4" x="798.64" y="0">TWEETS ON</tspan><tspan class="cls-3" x="1303.57" y="0"> </tspan><tspan class="cls-5" x="1328.29" y="0">ASIA</tspan></text></svg>